<svg width="24" height="25" viewBox="0 0 24 25" fill="none" xmlns="http://www.w3.org/2000/svg">
<path d="M9.98438 2.59253C8.17187 2.59253 6.5 3.03784 4.96875 3.92847C3.4375 4.81909 2.22656 6.03003 1.33594 7.56128C0.445312 9.09253 0 10.7644 0 12.5769C0 14.2332 0.367187 15.7722 1.10156 17.1941C1.83594 18.616 2.84375 19.7957 4.125 20.7332C5.40625 21.6707 6.84375 22.2488 8.4375 22.4675V15.4832H5.90625V12.5769H8.4375V10.3738C8.4375 9.15503 8.77344 8.2019 9.44531 7.5144C10.1172 6.8269 11.0313 6.48315 12.1875 6.48315C12.9375 6.48315 13.6875 6.54565 14.4375 6.67065V9.15503H13.1719C12.6094 9.15503 12.1875 9.31128 11.9062 9.62378C11.6562 9.90503 11.5312 10.2644 11.5312 10.7019V12.5769H14.3438L13.875 15.4832H11.5312V22.4675C13.1563 22.2175 14.6094 21.6238 15.8906 20.6863C17.1719 19.7488 18.1719 18.5691 18.8906 17.1472C19.6094 15.7253 19.9688 14.2019 19.9688 12.5769C19.9688 10.7644 19.5234 9.09253 18.6328 7.56128C17.7422 6.03003 16.5313 4.81909 15 3.92847C13.4687 3.03784 11.7969 2.59253 9.98438 2.59253Z" fill="white"/>
</svg>
