<svg width="24" height="25" viewBox="0 0 24 25" fill="none" xmlns="http://www.w3.org/2000/svg">
<path d="M15.9844 3.53003C16.5469 3.53003 17.0234 3.72534 17.4141 4.11597C17.8047 4.50659 18 4.98315 18 5.54565V19.5144C18 20.0769 17.8047 20.5535 17.4141 20.9441C17.0234 21.3347 16.5469 21.53 15.9844 21.53H2.01562C1.45312 21.53 0.976562 21.3347 0.585938 20.9441C0.195313 20.5535 0 20.0769 0 19.5144V5.54565C0 4.98315 0.195313 4.50659 0.585938 4.11597C0.976562 3.72534 1.45312 3.53003 2.01562 3.53003H15.9844ZM15.5156 19.0457V13.7488C15.5156 12.8425 15.1953 12.0691 14.5547 11.4285C13.9141 10.7878 13.1406 10.4675 12.2344 10.4675C11.7969 10.4675 11.3594 10.5925 10.9219 10.8425C10.4844 11.0925 10.1562 11.405 9.9375 11.78V10.655H7.125V19.0457H9.9375V14.0769C9.9375 13.7019 10.0703 13.3816 10.3359 13.116C10.6016 12.8503 10.9297 12.7175 11.3203 12.7175C11.7109 12.7175 12.0391 12.8503 12.3047 13.116C12.5703 13.3816 12.7031 13.7019 12.7031 14.0769V19.0457H15.5156ZM3.89062 9.10815C4.35938 9.10815 4.75781 8.94409 5.08594 8.61597C5.41406 8.28784 5.57812 7.8894 5.57812 7.42065C5.57812 6.9519 5.41406 6.55347 5.08594 6.22534C4.75781 5.89722 4.35938 5.73315 3.89062 5.73315C3.42188 5.73315 3.02344 5.89722 2.69531 6.22534C2.36719 6.55347 2.20312 6.9519 2.20312 7.42065C2.20312 7.8894 2.36719 8.28784 2.69531 8.61597C3.02344 8.94409 3.42188 9.10815 3.89062 9.10815ZM5.25 19.0457V10.655H2.48438V19.0457H5.25Z" fill="white"/>
</svg>
