<svg width="24" height="25" viewBox="0 0 24 25" fill="none" xmlns="http://www.w3.org/2000/svg">
<path d="M5.76562 2.54565H14.2031C15.2344 2.54565 16.1953 2.80347 17.0859 3.31909C17.9766 3.83472 18.6797 4.53784 19.1953 5.42847C19.7109 6.31909 19.9688 7.28003 19.9688 8.31128V16.7488C19.9688 17.78 19.7109 18.741 19.1953 19.6316C18.6797 20.5222 17.9766 21.2253 17.0859 21.741C16.1953 22.2566 15.2344 22.5144 14.2031 22.5144H5.76562C4.73438 22.5144 3.77344 22.2566 2.88281 21.741C1.99219 21.2253 1.28906 20.5222 0.773438 19.6316C0.257812 18.741 0 17.78 0 16.7488V8.31128C0 7.28003 0.257812 6.31909 0.773438 5.42847C1.28906 4.53784 1.99219 3.83472 2.88281 3.31909C3.77344 2.80347 4.73438 2.54565 5.76562 2.54565ZM5.57812 4.5144C4.57812 4.5144 3.72656 4.86597 3.02344 5.56909C2.32031 6.27222 1.96875 7.12378 1.96875 8.12378V16.9363C1.96875 17.9363 2.32031 18.7878 3.02344 19.491C3.72656 20.1941 4.57812 20.5457 5.57812 20.5457H14.3906C15.3906 20.5457 16.2422 20.1941 16.9453 19.491C17.6484 18.7878 18 17.9363 18 16.9363V8.12378C18 7.12378 17.6484 6.27222 16.9453 5.56909C16.2422 4.86597 15.3906 4.5144 14.3906 4.5144H5.57812ZM15.2344 6.0144C15.5781 6.0144 15.875 6.1394 16.125 6.3894C16.375 6.6394 16.5 6.93628 16.5 7.28003C16.5 7.62378 16.375 7.92065 16.125 8.17065C15.875 8.42065 15.5781 8.54565 15.2344 8.54565C14.8906 8.54565 14.5938 8.42065 14.3438 8.17065C14.0937 7.92065 13.9688 7.62378 13.9688 7.28003C13.9688 6.93628 14.0937 6.6394 14.3438 6.3894C14.5938 6.1394 14.8906 6.0144 15.2344 6.0144ZM9.98438 7.5144C10.8906 7.5144 11.7266 7.74097 12.4922 8.19409C13.2578 8.64722 13.8672 9.25659 14.3203 10.0222C14.7734 10.7878 15 11.6238 15 12.53C15 13.4363 14.7734 14.2722 14.3203 15.0378C13.8672 15.8035 13.2578 16.4128 12.4922 16.866C11.7266 17.3191 10.8906 17.5457 9.98438 17.5457C9.07812 17.5457 8.24219 17.3191 7.47656 16.866C6.71094 16.4128 6.10156 15.8035 5.64844 15.0378C5.19531 14.2722 4.96875 13.4363 4.96875 12.53C4.96875 11.6238 5.19531 10.7878 5.64844 10.0222C6.10156 9.25659 6.71094 8.64722 7.47656 8.19409C8.24219 7.74097 9.07812 7.5144 9.98438 7.5144ZM9.98438 9.53003C9.14062 9.53003 8.42969 9.81909 7.85156 10.3972C7.27344 10.9753 6.98438 11.6863 6.98438 12.53C6.98438 13.3738 7.27344 14.0847 7.85156 14.6628C8.42969 15.241 9.14062 15.53 9.98438 15.53C10.8281 15.53 11.5391 15.241 12.1172 14.6628C12.6953 14.0847 12.9844 13.3738 12.9844 12.53C12.9844 11.6863 12.6953 10.9753 12.1172 10.3972C11.5391 9.81909 10.8281 9.53003 9.98438 9.53003Z" fill="white"/>
</svg>
