<svg width="24" height="25" viewBox="0 0 24 25" fill="none" xmlns="http://www.w3.org/2000/svg">
<path d="M20.9062 6.53003C20.1562 6.87378 19.3437 7.10815 18.4688 7.23315C19.375 6.67065 20 5.87378 20.3438 4.84253C19.5 5.34253 18.5937 5.68628 17.625 5.87378C16.7812 4.96753 15.7188 4.5144 14.4375 4.5144C13.2813 4.5144 12.2812 4.93628 11.4375 5.78003C10.5938 6.62378 10.1719 7.6394 10.1719 8.8269C10.1719 9.1394 10.2188 9.46753 10.3125 9.81128C8.5625 9.71753 6.91406 9.27222 5.36719 8.47534C3.82031 7.67847 2.51562 6.62378 1.45312 5.31128C1.07812 5.96753 0.890625 6.67847 0.890625 7.44409C0.890625 8.20972 1.0625 8.90503 1.40625 9.53003C1.75 10.155 2.20312 10.655 2.76562 11.03C2.10938 11.03 1.46875 10.8582 0.84375 10.5144V10.5613C0.84375 11.5925 1.17188 12.4988 1.82812 13.28C2.48438 14.0613 3.29688 14.5613 4.26562 14.78C3.92187 14.8738 3.54688 14.9207 3.14062 14.9207C2.89062 14.9207 2.625 14.8894 2.34375 14.8269C2.625 15.7019 3.13281 16.4128 3.86719 16.9597C4.60156 17.5066 5.42187 17.7957 6.32812 17.8269C4.79687 19.0457 3.03125 19.655 1.03125 19.655C0.6875 19.655 0.34375 19.6394 0 19.6082C2 20.8894 4.1875 21.53 6.5625 21.53C9.0625 21.53 11.2813 20.8894 13.2188 19.6082C15 18.4832 16.3906 16.9519 17.3906 15.0144C18.3281 13.1707 18.7969 11.28 18.7969 9.34253L18.75 8.78003C19.5938 8.18628 20.3125 7.43628 20.9062 6.53003Z" fill="white"/>
</svg>
