<svg width="401" height="428" viewBox="0 0 401 428" fill="none" xmlns="http://www.w3.org/2000/svg">
<g clip-path="url(#clip0_28_152)">
<path d="M384.545 328.615L171.216 205.43C168.221 203.724 165.799 199.066 165.799 195.083V30.0375C165.799 26.0451 168.221 24.2109 171.216 25.9427L384.545 149.127C387.539 150.833 389.962 155.491 389.962 159.475V324.52C389.996 328.513 387.574 330.347 384.545 328.615Z" fill="#B1B4C4"/>
<path d="M385.68 330.321L388.043 328.956L387.019 321.952L385.68 330.321Z" fill="#B1B4C4"/>
<path d="M165.415 26.9408L167.744 25.5929L171.088 27.5038C171.088 27.5038 167.522 28.0412 167.437 28.0242C167.351 28.0071 165.415 26.9408 165.415 26.9408Z" fill="#B1B4C4"/>
<path d="M382.626 329.784L169.262 206.565C166.268 204.859 163.837 200.201 163.837 196.209V31.2062C163.837 27.2138 166.268 25.3796 169.262 27.1114L382.626 150.296C385.62 152.002 388.043 156.66 388.043 160.652V325.655C388.043 329.639 385.62 331.49 382.626 329.784Z" fill="#E4E7F2"/>
<path d="M382.25 329.963L168.887 206.778C165.893 205.072 163.461 200.414 163.461 196.422V31.3768C163.461 27.393 165.893 25.5588 168.887 27.2821L382.25 150.467C385.236 152.173 387.667 156.831 387.667 160.823V325.868C387.667 329.86 385.236 331.695 382.25 329.963Z" fill="#D6D8E5"/>
<path d="M384.733 319.922L166.157 193.743L166.285 32.0592C166.285 30.4042 167.445 29.7303 168.844 30.5578L382.208 153.742C382.957 154.239 383.579 154.904 384.023 155.685C384.468 156.466 384.723 157.341 384.767 158.238L384.733 319.922Z" fill="white"/>
<path opacity="0.5" d="M384.665 319.931L166.157 193.752L166.225 32.0592C166.225 30.4042 167.385 29.7303 168.784 30.5578L382.148 153.742C382.897 154.239 383.518 154.905 383.963 155.686C384.407 156.466 384.662 157.341 384.707 158.238L384.665 319.931Z" fill="url(#paint0_linear_28_152)"/>
<path opacity="0.4" d="M221.326 425.866L7.96213 302.681C4.96782 300.975 5.34317 297.938 8.8152 295.942L151.748 213.415C155.161 211.428 160.433 211.206 163.419 212.938L376.791 336.122C379.776 337.828 379.401 340.865 375.938 342.861L232.996 425.388C229.541 427.376 224.311 427.598 221.326 425.866Z" fill="#D6D8E5"/>
<path d="M225.983 423.068L12.6029 299.926C9.60857 298.22 9.98392 295.183 13.456 293.187L156.389 210.668C159.802 208.672 165.074 208.45 168.068 210.182L381.431 333.367C384.426 335.073 384.05 338.11 380.578 340.106L237.662 422.59C234.207 424.578 228.978 424.8 225.983 423.068Z" fill="#B1B4C4"/>
<path d="M10.5981 297.102V293.076L15.1195 294.97L10.5981 297.102Z" fill="#B1B4C4"/>
<path d="M383.453 336.335V332.403L380.109 333.554L382.327 336.813L383.453 336.335Z" fill="#B1B4C4"/>
<path d="M225.983 419.681L12.6029 296.514C9.60857 294.807 9.98392 291.77 13.456 289.774L156.389 207.247C159.802 205.251 165.074 205.038 168.068 206.77L381.431 329.954C384.426 331.66 384.05 334.697 380.578 336.694L237.662 419.195C234.207 421.191 228.978 421.413 225.983 419.681Z" fill="#E4E7F2"/>
<path d="M225.983 419.161L12.6029 295.976C9.60857 294.27 9.98392 291.225 13.456 289.237L156.389 206.71C159.802 204.714 165.074 204.501 168.068 206.224L381.431 329.417C384.426 331.123 384.05 334.16 380.578 336.156L237.662 418.674C234.207 420.671 228.978 420.884 225.983 419.161Z" fill="#D6D8E5"/>
<path d="M152.431 234.546L142.501 228.813C141.648 228.344 141.793 227.525 142.723 226.988L152.209 221.511C152.689 221.244 153.224 221.094 153.772 221.071C154.32 221.049 154.866 221.156 155.366 221.383L165.304 227.116C166.114 227.585 166.012 228.404 165.074 228.941L155.596 234.418C155.115 234.685 154.578 234.836 154.029 234.858C153.479 234.88 152.932 234.773 152.431 234.546Z" fill="#2B303F"/>
<path d="M166.498 242.667L156.56 236.926C155.749 236.465 155.852 235.646 156.79 235.101L166.268 229.632C166.749 229.365 167.286 229.215 167.835 229.193C168.385 229.17 168.932 229.277 169.433 229.504L179.363 235.237C180.216 235.706 180.071 236.525 179.141 237.063L169.655 242.531C169.177 242.801 168.641 242.954 168.093 242.978C167.544 243.002 166.998 242.895 166.498 242.667Z" fill="#2B303F"/>
<path d="M180.719 250.882L170.789 245.141C169.936 244.672 170.081 243.853 171.011 243.316L180.497 237.847C180.975 237.577 181.51 237.424 182.059 237.4C182.608 237.377 183.154 237.483 183.654 237.711L193.592 243.452C194.445 243.913 194.3 244.732 193.362 245.278L183.884 250.746C183.403 251.012 182.867 251.162 182.318 251.186C181.768 251.21 181.221 251.106 180.719 250.882Z" fill="#2B303F"/>
<path d="M194.624 258.901L184.686 253.169C183.875 252.699 183.978 251.88 184.916 251.343L194.394 245.866C194.875 245.599 195.412 245.449 195.961 245.427C196.511 245.404 197.058 245.511 197.559 245.738L207.497 251.471C208.308 251.94 208.205 252.759 207.267 253.297L197.789 258.773C197.308 259.04 196.771 259.191 196.222 259.213C195.672 259.235 195.125 259.129 194.624 258.901Z" fill="#2B303F"/>
<path d="M208.692 267.023L198.753 261.29C197.9 260.821 198.045 260.002 198.983 259.464L208.461 253.988C208.942 253.721 209.479 253.57 210.028 253.548C210.578 253.526 211.125 253.632 211.626 253.86L221.556 259.592C222.366 260.062 222.264 260.88 221.326 261.418L211.848 266.895C211.368 267.162 210.833 267.312 210.285 267.334C209.737 267.357 209.191 267.25 208.692 267.023Z" fill="#2B303F"/>
<path d="M222.75 275.187L212.82 269.454C212.01 268.985 212.104 268.166 213.042 267.628L222.52 262.152C223.001 261.885 223.538 261.734 224.087 261.712C224.637 261.69 225.184 261.796 225.685 262.024L235.623 267.756C236.434 268.225 236.331 269.044 235.393 269.582L225.915 275.059C225.434 275.326 224.897 275.476 224.348 275.498C223.798 275.521 223.251 275.414 222.75 275.187Z" fill="#2B303F"/>
<path d="M236.817 283.265L226.879 277.533C226.069 277.063 226.171 276.244 227.109 275.707L236.587 270.23C237.068 269.963 237.605 269.813 238.154 269.791C238.704 269.768 239.251 269.875 239.752 270.102L249.682 275.835C250.492 276.304 250.39 277.123 249.46 277.661L239.974 283.129C239.496 283.399 238.961 283.552 238.412 283.576C237.863 283.6 237.317 283.493 236.817 283.265Z" fill="#2B303F"/>
<path d="M250.876 291.395L240.946 285.654C240.136 285.185 240.238 284.374 241.168 283.828L250.654 278.36C251.132 278.09 251.668 277.937 252.216 277.913C252.765 277.889 253.311 277.996 253.811 278.224L263.749 283.965C264.602 284.434 264.457 285.244 263.519 285.79L254.024 291.25C253.547 291.519 253.014 291.672 252.467 291.697C251.921 291.722 251.376 291.619 250.876 291.395Z" fill="#2B303F"/>
<path d="M264.943 299.499L255.005 293.767C254.195 293.297 254.297 292.478 255.235 291.941L264.713 286.473C265.193 286.203 265.729 286.049 266.279 286.026C266.829 286.002 267.377 286.108 267.878 286.336L277.808 292.078C278.618 292.538 278.516 293.357 277.586 293.903L268.108 299.371C267.627 299.638 267.091 299.789 266.541 299.811C265.992 299.833 265.444 299.727 264.943 299.499Z" fill="#2B303F"/>
<path d="M279.002 307.604L269.072 301.871C268.262 301.402 268.364 300.583 269.294 300.045L278.763 294.586C279.243 294.319 279.778 294.168 280.326 294.146C280.875 294.124 281.42 294.231 281.92 294.458L291.858 300.19C292.669 300.66 292.566 301.479 291.628 302.016L282.176 307.493C281.692 307.758 281.153 307.907 280.602 307.926C280.051 307.945 279.503 307.835 279.002 307.604Z" fill="#2B303F"/>
<path d="M293.07 315.742L283.131 310.009C282.321 309.54 282.423 308.721 283.361 308.184L292.839 302.707C293.32 302.44 293.857 302.29 294.406 302.267C294.956 302.245 295.503 302.352 296.004 302.579L305.942 308.312C306.753 308.781 306.651 309.6 305.712 310.137L296.234 315.614C295.754 315.881 295.217 316.032 294.667 316.054C294.118 316.076 293.57 315.969 293.07 315.742Z" fill="#2B303F"/>
<path d="M307.137 323.863L297.198 318.131C296.388 317.661 296.49 316.843 297.429 316.305L306.915 310.828C307.396 310.561 307.933 310.411 308.482 310.389C309.032 310.366 309.579 310.473 310.08 310.7L320.01 316.433C320.863 316.902 320.718 317.721 319.779 318.259L310.327 323.735C309.844 324.008 309.302 324.161 308.747 324.184C308.193 324.206 307.641 324.096 307.137 323.863Z" fill="#2B303F"/>
<path d="M321.195 331.985L311.266 326.243C310.413 325.774 310.549 324.964 311.487 324.418L320.965 318.949C321.445 318.681 321.982 318.529 322.531 318.505C323.081 318.482 323.628 318.587 324.13 318.813L334.068 324.554C334.879 325.023 334.776 325.834 333.838 326.38L324.36 331.848C323.881 332.118 323.344 332.271 322.794 332.295C322.244 332.319 321.697 332.212 321.195 331.985Z" fill="#2B303F"/>
<path d="M342.036 344.013L325.324 334.365C324.514 333.895 324.616 333.077 325.555 332.539L335.067 327.071C335.546 326.801 336.083 326.647 336.633 326.624C337.183 326.6 337.73 326.706 338.231 326.934L354.901 336.608C355.711 337.077 355.609 337.896 354.679 338.434L345.193 343.911C344.711 344.173 344.175 344.319 343.627 344.337C343.078 344.355 342.534 344.244 342.036 344.013Z" fill="#2B303F"/>
<path d="M159.665 254.457L149.727 248.741C148.874 248.272 149.019 247.453 149.957 246.916L159.435 241.439C159.916 241.172 160.452 241.021 161.002 240.999C161.552 240.977 162.099 241.084 162.6 241.311L172.53 247.035C173.34 247.504 173.238 248.323 172.308 248.861L162.821 254.337C162.341 254.603 161.806 254.752 161.257 254.773C160.709 254.793 160.164 254.685 159.665 254.457Z" fill="#2B303F"/>
<path d="M173.749 262.595L163.82 256.862C163.009 256.393 163.112 255.574 164.041 255.037L173.528 249.594C174.007 249.327 174.542 249.177 175.091 249.155C175.639 249.132 176.185 249.239 176.684 249.466L186.631 255.165C187.441 255.634 187.339 256.453 186.401 256.99L176.923 262.467C176.441 262.735 175.903 262.887 175.351 262.909C174.8 262.931 174.251 262.824 173.749 262.595Z" fill="#2B303F"/>
<path d="M187.842 270.725L177.904 264.992C177.051 264.523 177.196 263.704 178.134 263.167L187.612 257.69C188.093 257.423 188.63 257.273 189.179 257.25C189.729 257.228 190.276 257.335 190.777 257.562L200.707 263.295C201.517 263.764 201.415 264.583 200.485 265.12L190.999 270.597C190.519 270.864 189.984 271.014 189.436 271.037C188.887 271.059 188.342 270.952 187.842 270.725Z" fill="#2B303F"/>
<path d="M201.927 278.863L191.988 273.122C191.178 272.661 191.28 271.843 192.219 271.297L201.696 265.803C202.177 265.534 202.713 265.382 203.263 265.359C203.812 265.335 204.36 265.44 204.861 265.666L214.782 271.433C215.593 271.902 215.491 272.713 214.552 273.259L205.074 278.727C204.597 278.994 204.063 279.146 203.517 279.17C202.97 279.193 202.425 279.088 201.927 278.863Z" fill="#2B303F"/>
<path d="M215.9 286.933L205.97 281.158C205.16 280.689 205.262 279.879 206.192 279.333L215.678 273.864C216.156 273.594 216.691 273.441 217.24 273.417C217.789 273.394 218.335 273.5 218.835 273.728L228.773 279.469C229.626 279.93 229.481 280.749 228.543 281.295L219.048 286.797C218.57 287.062 218.036 287.213 217.49 287.237C216.944 287.26 216.399 287.157 215.9 286.933Z" fill="#2B303F"/>
<path d="M229.993 295.063L220.055 289.331C219.244 288.862 219.346 288.043 220.285 287.505L229.763 282.011C230.243 281.744 230.78 281.594 231.33 281.572C231.879 281.549 232.427 281.656 232.927 281.883L242.857 287.616C243.668 288.085 243.565 288.904 242.635 289.442L233.149 294.918C232.671 295.188 232.137 295.341 231.588 295.367C231.04 295.392 230.494 295.288 229.993 295.063Z" fill="#2B303F"/>
<path d="M244.077 303.193L234.139 297.46C233.328 296.991 233.431 296.172 234.369 295.635L243.847 290.167C244.326 289.896 244.863 289.743 245.413 289.72C245.963 289.696 246.511 289.802 247.012 290.03L256.95 295.771C257.761 296.232 257.658 297.051 256.72 297.597L247.242 303.065C246.761 303.332 246.224 303.483 245.675 303.505C245.125 303.527 244.578 303.42 244.077 303.193Z" fill="#2B303F"/>
<path d="M258.162 311.332L248.232 305.599C247.421 305.13 247.524 304.311 248.462 303.773L257.94 298.296C258.419 298.03 258.954 297.879 259.503 297.857C260.051 297.835 260.597 297.941 261.096 298.169L271.034 303.901C271.845 304.37 271.743 305.189 270.804 305.727L261.326 311.204C260.846 311.47 260.309 311.621 259.759 311.643C259.21 311.666 258.662 311.559 258.162 311.332Z" fill="#2B303F"/>
<path d="M272.254 319.461L262.316 313.729C261.463 313.26 261.608 312.441 262.546 311.903L272.024 306.426C272.505 306.159 273.042 306.009 273.591 305.987C274.141 305.964 274.688 306.071 275.189 306.298L285.119 312.031C285.929 312.5 285.835 313.319 284.897 313.857L275.419 319.333C274.938 319.6 274.402 319.751 273.852 319.773C273.302 319.795 272.755 319.689 272.254 319.461Z" fill="#2B303F"/>
<path d="M286.339 327.6L276.409 321.859C275.598 321.398 275.701 320.579 276.631 320.033L286.117 314.565C286.596 314.299 287.131 314.148 287.679 314.124C288.227 314.1 288.773 314.204 289.273 314.428L299.237 320.169C300.048 320.639 299.945 321.458 299.007 321.995L289.529 327.463C289.046 327.738 288.505 327.893 287.95 327.917C287.396 327.941 286.843 327.832 286.339 327.6Z" fill="#2B303F"/>
<path d="M300.432 335.755L290.493 330.023C289.683 329.553 289.785 328.734 290.724 328.197L300.201 322.72C300.682 322.453 301.219 322.303 301.769 322.28C302.318 322.258 302.865 322.365 303.366 322.592L313.296 328.325C314.106 328.794 314.004 329.613 313.074 330.15L303.588 335.627C303.109 335.894 302.573 336.045 302.025 336.067C301.477 336.089 300.931 335.982 300.432 335.755Z" fill="#2B303F"/>
<path d="M314.516 343.868L304.586 338.127C303.776 337.658 303.869 336.847 304.808 336.301L314.286 330.833C314.766 330.565 315.302 330.413 315.852 330.389C316.401 330.365 316.949 330.471 317.451 330.696L327.389 336.438C328.199 336.907 328.097 337.717 327.159 338.263L317.681 343.731C317.201 344.002 316.665 344.155 316.115 344.179C315.565 344.202 315.017 344.096 314.516 343.868Z" fill="#2B303F"/>
<path d="M145.572 246.327L128.869 236.679C128.059 236.209 128.161 235.399 129.091 234.853L138.577 229.385C139.055 229.115 139.59 228.962 140.139 228.938C140.687 228.914 141.234 229.02 141.733 229.248L158.479 238.897C159.29 239.366 159.187 240.185 158.249 240.722L148.737 246.182C148.258 246.452 147.722 246.605 147.172 246.63C146.622 246.655 146.074 246.552 145.572 246.327Z" fill="#2B303F"/>
<path d="M341.354 344.533L331.424 338.801C330.967 338.567 330.461 338.445 329.948 338.445C329.435 338.445 328.929 338.567 328.472 338.801L318.457 344.585C317.604 345.054 317.604 345.813 318.457 346.291L319.25 346.751C320.001 347.178 319.993 347.886 319.25 348.321L308.621 354.429C307.768 354.907 307.768 355.666 308.621 356.135L314.942 359.786C315.398 360.018 315.903 360.139 316.414 360.139C316.925 360.139 317.43 360.018 317.886 359.786L327.798 354.071L329.846 352.885L331.322 352.032L332.806 351.179L341.337 346.257C342.164 345.762 342.164 345.003 341.354 344.533Z" fill="#2B303F"/>
<path d="M97.9619 266.059L88.0321 260.326C87.179 259.857 87.324 259.038 88.2539 258.5L97.7401 253.007C98.2195 252.74 98.7549 252.589 99.3031 252.567C99.8513 252.545 100.397 252.651 100.897 252.879L110.835 258.611C111.645 259.08 111.543 259.899 110.605 260.437L101.127 265.914C100.647 266.183 100.111 266.337 99.5616 266.362C99.012 266.387 98.4641 266.283 97.9619 266.059Z" fill="#2B303F"/>
<path d="M111.987 274.154L102.057 268.422C101.204 267.953 101.349 267.134 102.278 266.596L111.765 261.119C112.244 260.853 112.779 260.702 113.328 260.68C113.876 260.658 114.422 260.764 114.921 260.991L124.859 266.724C125.67 267.193 125.568 268.012 124.629 268.55L115.151 274.026C114.671 274.293 114.134 274.444 113.584 274.466C113.035 274.488 112.487 274.382 111.987 274.154Z" fill="#2B303F"/>
<path d="M126.011 282.25L116.081 276.517C115.228 276.048 115.365 275.229 116.303 274.692L125.781 269.215C126.262 268.948 126.798 268.798 127.348 268.775C127.898 268.753 128.445 268.86 128.946 269.087L138.859 274.82C139.669 275.289 139.567 276.108 138.628 276.645L129.15 282.122C128.673 282.385 128.141 282.533 127.596 282.555C127.051 282.578 126.509 282.473 126.011 282.25Z" fill="#2B303F"/>
<path d="M245.442 351.204L235.504 345.463C234.651 345.003 234.796 344.184 235.734 343.638L245.212 338.169C245.692 337.901 246.228 337.749 246.778 337.725C247.328 337.702 247.875 337.807 248.377 338.033L258.289 343.774C259.143 344.243 258.998 345.054 258.059 345.6L248.599 351.111C248.117 351.374 247.58 351.52 247.032 351.536C246.483 351.552 245.938 351.439 245.442 351.204Z" fill="#2B303F"/>
<path d="M259.458 359.3L249.528 353.567C248.675 353.098 248.82 352.279 249.75 351.742L259.236 346.265C259.716 345.998 260.251 345.848 260.799 345.826C261.348 345.803 261.893 345.91 262.393 346.137L272.331 351.87C273.184 352.339 273.039 353.158 272.101 353.695L262.623 359.172C262.142 359.439 261.605 359.59 261.056 359.612C260.506 359.634 259.959 359.527 259.458 359.3Z" fill="#2B303F"/>
<path d="M273.483 367.396L263.553 361.663C262.743 361.194 262.845 360.375 263.775 359.838L273.261 354.361C273.74 354.094 274.276 353.943 274.824 353.921C275.372 353.899 275.918 354.006 276.417 354.233L286.356 359.966C287.209 360.435 287.064 361.254 286.125 361.791L276.648 367.268C276.167 367.535 275.63 367.685 275.08 367.708C274.531 367.73 273.984 367.623 273.483 367.396Z" fill="#2B303F"/>
<path d="M287.507 375.492L277.578 369.759C276.767 369.29 276.87 368.471 277.799 367.933L287.294 362.456C287.774 362.19 288.309 362.039 288.857 362.017C289.405 361.995 289.951 362.101 290.451 362.329L300.389 368.061C301.242 368.53 301.097 369.349 300.159 369.887L290.706 375.364C290.221 375.636 289.678 375.79 289.122 375.812C288.566 375.834 288.013 375.724 287.507 375.492Z" fill="#2B303F"/>
<path d="M143.644 292.436L130.097 284.613C129.287 284.144 129.389 283.325 130.328 282.788L139.805 277.311C140.286 277.044 140.823 276.893 141.373 276.871C141.922 276.849 142.469 276.956 142.97 277.183L156.517 285.006C157.37 285.475 157.225 286.285 156.287 286.831L146.809 292.299C146.33 292.57 145.793 292.723 145.243 292.747C144.693 292.77 144.145 292.664 143.644 292.436Z" fill="#2B303F"/>
<path d="M231.418 343.109L217.871 335.286C217.018 334.817 217.163 333.998 218.092 333.46L227.579 327.984C228.058 327.717 228.593 327.566 229.142 327.544C229.69 327.522 230.236 327.629 230.735 327.856L244.282 335.678C245.092 336.148 244.99 336.958 244.06 337.504L234.574 342.972C234.096 343.242 233.561 343.395 233.012 343.419C232.464 343.443 231.917 343.337 231.418 343.109Z" fill="#2B303F"/>
<path d="M213.776 332.923L147.739 294.807C146.929 294.338 147.031 293.519 147.961 292.982L157.447 287.505C157.926 287.238 158.462 287.088 159.01 287.065C159.558 287.043 160.104 287.15 160.603 287.377L226.649 325.518C227.459 325.987 227.357 326.806 226.418 327.344L216.941 332.821C216.458 333.083 215.92 333.23 215.37 333.247C214.821 333.265 214.275 333.154 213.776 332.923Z" fill="#2B303F"/>
<path d="M149.855 264.54L139.925 258.808C139.114 258.338 139.217 257.519 140.155 256.982L149.633 251.505C150.112 251.238 150.648 251.088 151.196 251.066C151.744 251.043 152.29 251.15 152.789 251.377L162.745 257.11C163.598 257.579 163.453 258.398 162.514 258.936L153.037 264.412C152.554 264.682 152.014 264.834 151.461 264.856C150.908 264.879 150.358 264.77 149.855 264.54Z" fill="#2B303F"/>
<path d="M163.905 272.627L153.975 266.886C153.165 266.417 153.267 265.607 154.197 265.061L163.683 259.592C164.162 259.324 164.697 259.172 165.245 259.148C165.793 259.125 166.339 259.23 166.839 259.456L176.778 265.197C177.631 265.666 177.486 266.477 176.547 267.023L167.07 272.491C166.59 272.761 166.054 272.914 165.504 272.938C164.954 272.962 164.406 272.855 163.905 272.627Z" fill="#2B303F"/>
<path d="M177.955 280.757L168.017 275.025C167.164 274.555 167.309 273.736 168.247 273.199L177.725 267.722C178.206 267.455 178.742 267.305 179.292 267.283C179.842 267.26 180.389 267.367 180.89 267.594L190.82 273.327C191.673 273.796 191.536 274.615 190.598 275.153L181.12 280.629C180.639 280.896 180.102 281.047 179.553 281.069C179.003 281.091 178.456 280.984 177.955 280.757Z" fill="#2B303F"/>
<path d="M192.005 288.836L182.067 283.103C181.214 282.634 181.359 281.815 182.297 281.278L191.749 275.835C192.23 275.568 192.767 275.418 193.317 275.395C193.866 275.373 194.413 275.48 194.914 275.707L204.844 281.44C205.697 281.909 205.552 282.728 204.622 283.265L195.162 288.742C194.68 289.004 194.143 289.148 193.595 289.165C193.046 289.181 192.502 289.068 192.005 288.836Z" fill="#2B303F"/>
<path d="M206.047 296.983L196.117 291.25C195.264 290.781 195.409 289.962 196.339 289.424L205.825 283.948C206.305 283.681 206.84 283.53 207.388 283.508C207.936 283.486 208.482 283.593 208.982 283.82L218.92 289.552C219.773 290.022 219.628 290.841 218.69 291.378L209.212 296.855C208.731 297.122 208.194 297.272 207.645 297.295C207.095 297.317 206.548 297.21 206.047 296.983Z" fill="#2B303F"/>
<path d="M220.097 305.096L210.167 299.354C209.314 298.885 209.451 298.075 210.389 297.529L219.901 292.06C220.381 291.79 220.917 291.637 221.467 291.613C222.017 291.59 222.565 291.696 223.066 291.924L233.004 297.665C233.815 298.134 233.712 298.945 232.774 299.491L223.296 304.959C222.812 305.235 222.27 305.391 221.713 305.415C221.157 305.439 220.603 305.329 220.097 305.096Z" fill="#2B303F"/>
<path d="M234.147 313.2L224.209 307.467C223.399 306.998 223.501 306.179 224.439 305.642L233.917 300.165C234.398 299.898 234.935 299.747 235.484 299.725C236.034 299.703 236.581 299.81 237.082 300.037L247.012 305.769C247.865 306.239 247.72 307.058 246.79 307.595L237.304 313.072C236.824 313.339 236.289 313.489 235.741 313.511C235.193 313.534 234.647 313.427 234.147 313.2Z" fill="#2B303F"/>
<path d="M248.198 321.313L238.259 315.58C237.449 315.111 237.551 314.292 238.49 313.754L247.967 308.278C248.448 308.011 248.985 307.86 249.534 307.838C250.084 307.816 250.631 307.922 251.132 308.15L261.062 313.882C261.872 314.351 261.77 315.17 260.832 315.708L251.354 321.185C250.875 321.451 250.339 321.602 249.791 321.624C249.243 321.646 248.697 321.54 248.198 321.313Z" fill="#2B303F"/>
<path d="M262.239 329.425L252.318 323.693C251.507 323.223 251.61 322.405 252.54 321.867L262.026 316.39C262.505 316.124 263.041 315.973 263.589 315.951C264.137 315.929 264.683 316.035 265.182 316.262L275.121 321.995C275.931 322.464 275.829 323.283 274.89 323.821L265.413 329.297C264.931 329.566 264.392 329.717 263.841 329.739C263.29 329.761 262.741 329.654 262.239 329.425Z" fill="#2B303F"/>
<path d="M276.289 337.538L266.351 331.797C265.541 331.328 265.643 330.517 266.581 329.971L276.059 324.503C276.539 324.233 277.075 324.08 277.625 324.056C278.175 324.032 278.723 324.139 279.224 324.367L289.162 330.108C289.973 330.568 289.87 331.387 288.932 331.933L279.454 337.402C278.974 337.67 278.438 337.822 277.888 337.846C277.339 337.869 276.791 337.764 276.289 337.538Z" fill="#2B303F"/>
<path d="M290.34 345.642L280.401 339.91C279.591 339.441 279.693 338.622 280.632 338.084L290.109 332.607C290.59 332.34 291.127 332.19 291.677 332.168C292.226 332.145 292.773 332.252 293.274 332.479L303.204 338.212C304.057 338.681 303.912 339.5 302.982 340.038L293.496 345.514C293.017 345.781 292.481 345.932 291.933 345.954C291.385 345.976 290.839 345.87 290.34 345.642Z" fill="#2B303F"/>
<path d="M304.356 353.755L294.426 348.022C293.615 347.553 293.718 346.734 294.656 346.197L304.134 340.72C304.613 340.453 305.149 340.303 305.697 340.28C306.245 340.258 306.791 340.365 307.29 340.592L317.229 346.325C318.039 346.794 317.937 347.613 316.998 348.15L307.546 353.67C307.059 353.934 306.516 354.08 305.961 354.094C305.407 354.109 304.857 353.993 304.356 353.755Z" fill="#2B303F"/>
<path d="M135.813 256.419L115.262 244.561C114.409 244.092 114.554 243.273 115.493 242.736L124.97 237.259C125.451 236.992 125.988 236.841 126.538 236.819C127.087 236.797 127.634 236.904 128.135 237.131L148.677 248.989C149.531 249.458 149.385 250.277 148.456 250.814L138.969 256.291C138.49 256.558 137.955 256.708 137.406 256.731C136.858 256.753 136.312 256.646 135.813 256.419Z" fill="#2B303F"/>
<path d="M129.253 268.362L119.323 262.646C118.513 262.177 118.606 261.367 119.545 260.821L129.022 255.353C129.502 255.082 130.039 254.929 130.589 254.905C131.139 254.882 131.686 254.988 132.187 255.216L142.126 260.957C142.936 261.418 142.834 262.237 141.895 262.783L132.418 268.251C131.935 268.515 131.398 268.663 130.848 268.682C130.299 268.701 129.752 268.592 129.253 268.362Z" fill="#2B303F"/>
<path d="M143.303 276.492L133.365 270.759C132.554 270.29 132.657 269.471 133.595 268.934L143.073 263.457C143.554 263.19 144.09 263.039 144.64 263.017C145.19 262.995 145.737 263.102 146.238 263.329L156.167 269.061C157.021 269.531 156.876 270.35 155.946 270.887L146.459 276.364C145.98 276.631 145.445 276.781 144.896 276.803C144.348 276.826 143.802 276.719 143.303 276.492Z" fill="#2B303F"/>
<path d="M157.345 284.571L147.389 278.863C146.536 278.394 146.681 277.584 147.62 277.038L157.097 271.57C157.578 271.301 158.114 271.149 158.664 271.126C159.213 271.102 159.761 271.207 160.262 271.433L170.201 277.174C171.054 277.644 170.909 278.454 169.97 279L160.493 284.468C160.012 284.73 159.478 284.876 158.931 284.894C158.384 284.911 157.841 284.801 157.345 284.571Z" fill="#2B303F"/>
<path d="M171.386 292.709L161.457 286.976C160.603 286.507 160.748 285.688 161.687 285.151L171.165 279.674C171.644 279.407 172.179 279.256 172.728 279.234C173.276 279.212 173.822 279.319 174.321 279.546L184.259 285.279C185.07 285.748 184.967 286.567 184.029 287.104L174.551 292.581C174.07 292.848 173.534 292.998 172.984 293.021C172.434 293.043 171.887 292.936 171.386 292.709Z" fill="#2B303F"/>
<path d="M185.437 300.822L175.541 295.089C174.73 294.62 174.833 293.801 175.771 293.263L185.249 287.787C185.73 287.52 186.267 287.369 186.816 287.347C187.366 287.325 187.913 287.431 188.414 287.659L198.344 293.391C199.154 293.86 199.06 294.679 198.122 295.217L188.644 300.685C188.159 300.962 187.615 301.119 187.057 301.143C186.499 301.167 185.943 301.057 185.437 300.822Z" fill="#2B303F"/>
<path d="M199.478 308.926L189.548 303.193C188.738 302.724 188.84 301.905 189.77 301.368L199.256 295.891C199.736 295.624 200.271 295.473 200.819 295.451C201.368 295.429 201.913 295.536 202.413 295.763L212.351 301.496C213.162 301.965 213.059 302.784 212.121 303.321L202.643 308.798C202.162 309.065 201.625 309.215 201.076 309.238C200.526 309.26 199.979 309.153 199.478 308.926Z" fill="#2B303F"/>
<path d="M213.528 317.039L203.59 311.306C202.78 310.837 202.882 310.018 203.82 309.48L213.298 304.004C213.779 303.737 214.316 303.586 214.865 303.564C215.415 303.542 215.962 303.648 216.463 303.876L226.393 309.608C227.203 310.078 227.101 310.896 226.171 311.434L216.693 316.911C216.212 317.178 215.676 317.328 215.126 317.35C214.577 317.373 214.029 317.266 213.528 317.039Z" fill="#2B303F"/>
<path d="M227.579 325.151L217.649 319.41C216.838 318.941 216.941 318.131 217.871 317.585L227.357 312.116C227.835 311.846 228.37 311.693 228.919 311.669C229.467 311.646 230.014 311.752 230.513 311.98L240.452 317.721C241.262 318.182 241.16 319.001 240.221 319.547L230.744 325.015C230.263 325.283 229.727 325.435 229.177 325.459C228.628 325.483 228.08 325.377 227.579 325.151Z" fill="#2B303F"/>
<path d="M241.62 333.256L231.682 327.523C230.872 327.054 230.974 326.235 231.912 325.697L241.39 320.221C241.871 319.954 242.408 319.803 242.957 319.781C243.507 319.759 244.054 319.866 244.555 320.093L254.485 325.825C255.295 326.295 255.193 327.114 254.263 327.651L244.777 333.128C244.297 333.395 243.762 333.545 243.214 333.567C242.666 333.59 242.12 333.483 241.62 333.256Z" fill="#2B303F"/>
<path d="M255.662 341.368L245.732 335.627C244.922 335.167 245.024 334.348 245.954 333.802L255.44 328.333C255.919 328.065 256.454 327.913 257.002 327.89C257.55 327.866 258.096 327.971 258.597 328.197L268.526 333.938C269.337 334.407 269.234 335.218 268.296 335.764L258.818 341.232C258.34 341.501 257.805 341.653 257.256 341.677C256.708 341.701 256.162 341.595 255.662 341.368Z" fill="#2B303F"/>
<path d="M269.712 349.473L259.774 343.74C258.963 343.271 259.066 342.452 260.004 341.914L269.482 336.438C269.963 336.171 270.5 336.02 271.049 335.998C271.599 335.976 272.146 336.083 272.647 336.31L282.577 342.042C283.387 342.512 283.285 343.331 282.355 343.868L272.869 349.345C272.389 349.612 271.854 349.762 271.306 349.784C270.757 349.807 270.212 349.7 269.712 349.473Z" fill="#2B303F"/>
<path d="M301.14 367.626L273.841 351.853C273.031 351.384 273.125 350.565 274.063 350.027L283.541 344.55C284.022 344.284 284.558 344.133 285.108 344.111C285.657 344.089 286.205 344.195 286.706 344.423L314.004 360.196C314.814 360.657 314.712 361.476 313.774 362.022L304.296 367.49C303.817 367.757 303.282 367.908 302.734 367.932C302.186 367.955 301.64 367.851 301.14 367.626Z" fill="#2B303F"/>
<path d="M115.211 260.275L101.664 252.452C100.811 251.983 100.956 251.164 101.886 250.626L111.372 245.158C111.85 244.888 112.386 244.735 112.934 244.711C113.483 244.688 114.029 244.794 114.529 245.022L128.076 252.845C128.886 253.314 128.784 254.133 127.854 254.67L118.385 260.147C117.903 260.416 117.365 260.569 116.813 260.591C116.262 260.613 115.713 260.505 115.211 260.275Z" fill="#2B303F"/>
<path d="M356.146 335.866L156.662 220.701C155.809 220.24 155.954 219.421 156.893 218.875L161.636 216.145C162.114 215.877 162.649 215.725 163.198 215.701C163.746 215.677 164.292 215.783 164.792 216.009L364.276 331.174C365.086 331.643 364.984 332.454 364.046 333L359.311 335.755C358.829 336.019 358.291 336.167 357.742 336.186C357.192 336.206 356.646 336.096 356.146 335.866Z" fill="#2B303F"/>
<path d="M232.569 348.961C232.284 349.581 231.797 350.087 231.187 350.394L176.3 382.086C175.376 382.599 174.345 382.889 173.288 382.932C172.232 382.975 171.18 382.77 170.218 382.333L76.379 328.171C75.978 327.963 75.6548 327.631 75.4577 327.224C75.1165 326.371 75.5942 325.424 76.8397 324.708L131.735 293.007C132.659 292.494 133.691 292.204 134.747 292.161C135.803 292.118 136.855 292.323 137.818 292.76L231.656 346.922C232.036 347.086 232.34 347.387 232.509 347.764C232.678 348.141 232.699 348.568 232.569 348.961Z" fill="#B1B4C4"/>
<path d="M232.569 348.961C232.284 349.582 231.797 350.087 231.187 350.394L176.3 382.086C175.376 382.6 174.345 382.89 173.288 382.932C172.232 382.975 171.18 382.77 170.218 382.333L76.379 328.171C75.978 327.963 75.6548 327.631 75.4577 327.224C75.7485 326.61 76.2344 326.109 76.8397 325.8L131.735 294.108C132.659 293.594 133.69 293.303 134.746 293.258C135.802 293.214 136.854 293.417 137.818 293.852L231.656 348.023C232.055 348.228 232.375 348.557 232.569 348.961Z" fill="#C3C6D1"/>
<path d="M371.331 327.131L171.847 211.965C171.408 211.64 171.05 211.217 170.803 210.73C170.556 210.243 170.425 209.705 170.422 209.158V206.812C170.422 205.729 171.079 205.234 171.89 205.703L371.374 320.869C371.821 321.188 372.186 321.607 372.441 322.093C372.696 322.579 372.833 323.118 372.841 323.667V326.013C372.798 327.105 372.141 327.6 371.331 327.131Z" fill="#2B303F"/>
<path d="M201.986 200.593L182.28 189.239C179.815 187.814 177.81 183.984 177.81 180.708V159.577C177.81 156.285 179.815 154.775 182.28 156.165L201.986 167.554C204.46 168.978 206.456 172.809 206.456 176.084V197.215C206.422 200.508 204.426 202.018 201.986 200.593Z" fill="#E9EAF2"/>
<path d="M201.91 152.198L182.238 140.844C179.772 139.419 177.767 133.593 177.767 130.743V106.072C177.767 102.78 179.772 101.27 182.238 102.66L201.91 114.015C204.383 115.439 206.38 119.27 206.38 122.545V147.216C206.38 150.117 204.383 153.623 201.91 152.198Z" fill="#E9EAF2"/>
<path d="M192.184 135.717C188.183 133.405 184.925 127.758 184.925 123.134C184.925 118.51 188.183 116.625 192.184 118.937C196.185 121.249 199.453 126.896 199.453 131.52C199.453 136.143 196.194 138.029 192.184 135.717ZM192.184 121.087C189.207 119.38 186.784 120.771 186.784 124.209C186.882 126.088 187.422 127.917 188.36 129.548C189.298 131.179 190.609 132.564 192.184 133.593C195.17 135.299 197.593 133.917 197.593 130.479C197.496 128.598 196.955 126.766 196.015 125.134C195.075 123.502 193.763 122.115 192.184 121.087Z" fill="#283E79"/>
<path d="M194.181 132.296L190.888 127.058V122.699L192.747 123.774V127.16L195.409 131.383L194.181 132.296Z" fill="#283E79"/>
<path d="M201.884 100.015L182.212 88.661C179.747 87.2278 177.742 80.8127 177.742 77.9548V55.2459C177.742 52.3966 179.747 51.2364 182.212 52.6867L201.884 64.0497C203.186 64.8964 204.269 66.0385 205.046 67.383C205.822 68.7276 206.271 70.2365 206.354 71.7871V94.5046C206.354 97.3283 204.358 101.44 201.884 100.015Z" fill="#E9EAF2"/>
<path d="M192.048 72.7938C190.862 72.1113 189.907 72.6658 189.907 74.0393C189.946 74.7828 190.161 75.5064 190.533 76.1513C190.905 76.7962 191.424 77.344 192.048 77.7502C193.234 78.4326 194.198 77.8781 194.198 76.5132C194.155 75.7683 193.939 75.0437 193.565 74.3977C193.192 73.7517 192.672 73.2024 192.048 72.7938ZM197.772 73.6469L196.066 72.6573C195.789 72.4687 195.59 72.1872 195.503 71.8639L195.059 70.0639C194.966 69.7413 194.764 69.4609 194.488 69.2706L189.625 66.464C189.386 66.3275 189.139 66.3872 189.062 66.609L188.619 67.8886C188.596 67.9403 188.563 67.9862 188.52 68.0228C188.478 68.0594 188.427 68.0857 188.373 68.0997C188.318 68.1137 188.261 68.115 188.206 68.1036C188.151 68.0921 188.1 68.0682 188.056 68.0336L186.349 67.044C185.565 66.5834 184.925 66.9587 184.925 67.8971V75.336C184.952 75.8311 185.095 76.313 185.342 76.7427C185.59 77.1724 185.935 77.538 186.349 77.8099L197.798 84.4213C198.583 84.8734 199.231 84.5066 199.231 83.5682V76.1037C199.2 75.6044 199.052 75.1194 198.798 74.6881C198.545 74.2567 198.193 73.8913 197.772 73.6213V73.6469ZM192.048 79.4307C191.008 78.7508 190.143 77.8359 189.523 76.7601C188.902 75.6843 188.542 74.4776 188.474 73.2374C188.474 70.9511 190.077 70.0298 192.048 71.1729C193.09 71.8504 193.957 72.7646 194.578 73.841C195.199 74.9173 195.557 76.1253 195.622 77.3663C195.622 79.6184 194.027 80.5483 192.048 79.4052V79.4307ZM197.269 76.1635C197.125 76.07 197.006 75.9442 196.92 75.796C196.834 75.6478 196.784 75.4814 196.774 75.3104C196.774 74.9862 196.996 74.8582 197.269 75.0203C197.414 75.1128 197.535 75.2383 197.623 75.3865C197.71 75.5348 197.761 75.7016 197.772 75.8734C197.772 76.172 197.55 76.2999 197.269 76.1379V76.1635Z" fill="#283E79"/>
<path d="M198.258 179.94C198.258 183.788 192.227 188.787 192.227 188.787C192.227 188.787 186.187 176.844 186.187 172.971C186.187 169.098 188.892 167.562 192.227 169.482C193.983 170.629 195.445 172.173 196.492 173.99C197.54 175.807 198.145 177.846 198.258 179.94Z" fill="#283E79"/>
<path d="M195.016 181.025C196.559 180.135 196.56 177.25 195.019 174.581C193.479 171.913 190.98 170.471 189.437 171.362C187.895 172.252 187.894 175.137 189.434 177.806C190.975 180.474 193.474 181.916 195.016 181.025Z" fill="#E9EAF2"/>
<path d="M341.149 231.68L222.051 162.913C220.037 161.761 218.417 158.648 218.417 155.977V75.9331C218.417 73.263 220.037 72.0345 222.051 73.1947L341.149 141.953C343.154 143.113 344.775 146.218 344.775 148.897V228.933C344.775 231.611 343.154 232.84 341.149 231.68Z" fill="#E9EAF2"/>
<path d="M327.389 173.491L235.077 120.199C232.842 118.903 231.025 115.439 231.025 112.462V106.431C231.025 103.445 232.842 102.08 235.077 103.368L327.389 156.66C329.624 157.948 331.432 161.412 331.432 164.397V170.429C331.432 173.414 329.624 174.779 327.389 173.491Z" fill="white"/>
<path d="M277.185 171.623L235.077 147.31C232.842 146.022 231.025 142.559 231.025 139.573V133.576C231.025 130.59 232.842 129.225 235.077 130.513L277.185 154.826C279.42 156.114 281.229 159.577 281.229 162.563V168.552C281.229 171.538 279.42 172.911 277.185 171.623Z" fill="#283E79"/>
<path d="M365.658 249.287C365.658 249.287 320.76 259.183 284.462 218.866C248.163 178.55 218.553 183.72 218.553 183.72V208.885L365.658 293.809V249.287Z" fill="url(#paint1_linear_28_152)"/>
<path d="M365.658 249.287C365.658 249.287 320.76 259.183 284.462 218.866C248.163 178.55 218.553 183.72 218.553 183.72" stroke="#CCCEDD" stroke-width="0.904263" stroke-miterlimit="10"/>
<path d="M218.357 38.372C217.044 40.7194 215.448 42.8968 213.605 44.8554C213.093 45.4526 209.144 43.9426 209.971 43.5161C210.799 43.0896 213.383 39.4896 214.68 37.0839C215.765 34.2118 216.688 31.2812 217.444 28.3057C218.255 25.3626 218.954 21.046 219.551 19.0157C219.704 18.2657 220.07 17.576 220.606 17.0296C221.142 16.4831 221.824 16.1034 222.571 15.9361C223.996 15.6034 224.917 15.9958 224.653 17.719C224.166 20.7218 221.837 32.4431 218.357 38.372Z" fill="#FFCEA9"/>
<path d="M220.618 84.3103C219.398 85.3084 217.589 84.3956 217.495 84.4894C216.058 85.8214 214.551 87.0772 212.982 88.2515C212.215 88.8486 211.029 89.6505 211.276 90.8107C211.66 92.8666 214.962 92.2354 216.207 91.6041C217.453 90.9728 218.476 89.8979 219.619 89.1984C220.473 88.6695 221.326 88.405 221.419 87.3387C221.496 86.6989 220.839 84.2847 220.618 84.3103Z" fill="#38226D"/>
<path d="M221.402 86.9121C221.24 87.9273 220.421 88.2088 219.585 88.7292C218.391 89.4713 217.333 90.5462 216.088 91.1775C214.842 91.8088 212.07 92.3377 211.259 90.8619C211.694 92.8495 214.945 92.2268 216.173 91.604C217.401 90.9813 218.442 89.8979 219.585 89.1984C220.438 88.6695 221.291 88.405 221.385 87.3386C221.403 87.1972 221.408 87.0545 221.402 86.9121Z" fill="#9C73FF"/>
<path d="M208.197 77.1529C206.977 78.151 204.836 77.0676 204.742 77.1529C203.471 78.447 202.124 79.6634 200.707 80.7956C199.939 81.4012 198.753 82.2031 199.001 83.3548C199.384 85.4192 202.686 84.788 203.94 84.1567C205.194 83.5254 206.201 82.4505 207.352 81.7425C208.205 81.2221 209.058 80.9491 209.152 79.8913C209.22 79.2515 208.419 77.1273 208.197 77.1529Z" fill="#38226D"/>
<path d="M209.11 79.6099C208.947 80.625 208.128 80.9065 207.292 81.4269C206.098 82.1691 205.04 83.244 203.795 83.8753C202.549 84.5065 199.768 85.0354 198.966 83.5596C199.401 85.5473 202.643 84.9245 203.88 84.3018C205.117 83.679 206.141 82.5956 207.292 81.8876C208.146 81.3672 208.999 81.1028 209.092 80.0364C209.11 79.8949 209.115 79.7523 209.11 79.6099Z" fill="#9C73FF"/>
<path d="M236.963 45.0602C238.319 53.5398 234.557 56.7047 229.66 58.5047C226.145 59.8014 221.129 61.7976 221.129 61.7976C221.129 61.7976 221.198 63.6573 221.232 67.8288C221.232 71.5056 220.788 84.8904 220.788 84.8904C220.208 85.189 219.564 85.3448 218.911 85.3448C218.259 85.3448 217.615 85.189 217.035 84.8904C217.035 84.8904 215.064 74.6108 214.646 69.9701C214.074 63.6829 213.11 59.5625 213.435 58.2061C213.716 57.0118 220.592 53.6336 222.776 51.8251L208.367 56.6535C208.654 58.2152 208.794 59.8003 208.785 61.3881C208.657 66.3786 208.376 77.1871 208.376 77.1871C208.376 77.1871 206.405 78.6118 204.716 77.1871C204.716 77.1871 201.091 55.8004 201.534 52.9682C201.952 50.281 214.646 44.7872 216.89 42.8934C217.279 42.5765 217.731 42.3452 218.216 42.2144C218.701 42.0836 219.208 42.0563 219.705 42.1341L236.963 45.0602Z" fill="#283E79"/>
<path d="M202.447 48.5919L212.129 43.0043C212.213 42.9539 212.309 42.9272 212.407 42.9272C212.504 42.9272 212.6 42.9539 212.684 43.0043L229.66 52.8062L219.705 58.5559L202.447 48.5919Z" fill="#F4F4F4"/>
<path d="M220.157 56.5L220.899 56.9265C220.959 56.9265 220.95 57.0203 220.899 57.063L220.191 57.4725C220.155 57.4893 220.116 57.498 220.076 57.498C220.036 57.498 219.997 57.4893 219.961 57.4725L219.218 57.0459C219.159 57.0459 219.167 56.9521 219.218 56.9094L219.927 56.5C219.963 56.4832 220.002 56.4745 220.042 56.4745C220.082 56.4745 220.121 56.4832 220.157 56.5Z" fill="#3A2C6D"/>
<path d="M219.116 55.9455L219.85 56.3635C219.909 56.3635 219.901 56.4658 219.85 56.5L219.15 56.9094C219.113 56.9282 219.072 56.9379 219.031 56.9379C218.989 56.9379 218.948 56.9282 218.911 56.9094L218.178 56.4829C218.118 56.4829 218.127 56.3891 218.178 56.3464L218.877 55.9455C218.914 55.9245 218.955 55.9135 218.997 55.9135C219.039 55.9135 219.08 55.9245 219.116 55.9455Z" fill="#3A2C6D"/>
<path d="M218.058 55.2886L218.792 55.7151C218.852 55.7151 218.852 55.809 218.792 55.8516L218.092 56.2526C218.055 56.2713 218.015 56.2811 217.973 56.2811C217.932 56.2811 217.891 56.2713 217.854 56.2526L217.12 55.826C217.06 55.826 217.069 55.7322 217.12 55.6895L217.819 55.28C217.857 55.2626 217.898 55.2543 217.94 55.2558C217.981 55.2573 218.022 55.2685 218.058 55.2886Z" fill="#3A2C6D"/>
<path d="M217.026 54.6914L217.76 55.1179C217.819 55.1179 217.819 55.2118 217.76 55.2544L217.06 55.6639C217.023 55.6808 216.982 55.6896 216.941 55.6896C216.9 55.6896 216.859 55.6808 216.821 55.6639L216.088 55.2373C216.028 55.2373 216.036 55.1435 216.088 55.1009L216.787 54.6914C216.825 54.6744 216.865 54.6656 216.907 54.6656C216.948 54.6656 216.989 54.6744 217.026 54.6914Z" fill="#3A2C6D"/>
<path d="M215.977 54.0858L216.719 54.5123C216.779 54.5123 216.77 54.6147 216.719 54.6488L216.011 55.0583C215.975 55.077 215.936 55.0867 215.896 55.0867C215.856 55.0867 215.816 55.077 215.781 55.0583L215.038 54.6317C214.979 54.6317 214.987 54.5379 215.038 54.4952L215.746 54.0943C215.781 54.0743 215.82 54.0631 215.861 54.0616C215.901 54.0601 215.941 54.0684 215.977 54.0858Z" fill="#3A2C6D"/>
<path d="M214.936 53.4885L215.678 53.9151C215.738 53.9151 215.729 54.0089 215.678 54.0516L214.97 54.4525C214.935 54.4712 214.895 54.4809 214.855 54.4809C214.815 54.4809 214.775 54.4712 214.74 54.4525L213.998 54.026C213.938 54.026 213.946 53.9321 213.998 53.898L214.706 53.4885C214.741 53.4698 214.781 53.4601 214.821 53.4601C214.861 53.4601 214.901 53.4698 214.936 53.4885Z" fill="#3A2C6D"/>
<path d="M213.929 52.8829L214.663 53.3094C214.723 53.3094 214.714 53.4033 214.663 53.4459L213.964 53.8554C213.926 53.8724 213.885 53.8811 213.844 53.8811C213.803 53.8811 213.762 53.8724 213.725 53.8554L212.991 53.4289C212.931 53.4289 212.931 53.335 212.991 53.2924L213.691 52.8829C213.728 52.866 213.769 52.8572 213.81 52.8572C213.851 52.8572 213.892 52.866 213.929 52.8829Z" fill="#3A2C6D"/>
<path d="M212.846 52.2772L213.588 52.7037C213.648 52.7037 213.639 52.8061 213.588 52.8402L212.88 53.2497C212.845 53.2684 212.805 53.2781 212.765 53.2781C212.725 53.2781 212.685 53.2684 212.65 53.2497L211.908 52.8231C211.848 52.8231 211.856 52.7293 211.908 52.6867L212.616 52.2857C212.65 52.2657 212.69 52.2545 212.73 52.253C212.77 52.2515 212.81 52.2598 212.846 52.2772Z" fill="#3A2C6D"/>
<path d="M211.805 51.68L212.539 52.1065C212.599 52.1065 212.59 52.2004 212.539 52.243L211.839 52.644C211.802 52.6627 211.761 52.6725 211.72 52.6725C211.678 52.6725 211.638 52.6627 211.6 52.644L210.867 52.2174C210.807 52.2174 210.816 52.1236 210.867 52.0895L211.566 51.68C211.603 51.6613 211.644 51.6515 211.686 51.6515C211.727 51.6515 211.768 51.6613 211.805 51.68Z" fill="#3A2C6D"/>
<path d="M210.756 51.0743L211.498 51.5009C211.558 51.5009 211.549 51.5947 211.498 51.6374L210.79 52.0468C210.754 52.0636 210.715 52.0723 210.675 52.0723C210.635 52.0723 210.596 52.0636 210.56 52.0468L209.818 51.6203C209.758 51.6203 209.766 51.5265 209.818 51.4838L210.526 51.0743C210.561 51.0557 210.601 51.0459 210.641 51.0459C210.681 51.0459 210.72 51.0557 210.756 51.0743Z" fill="#3A2C6D"/>
<path d="M209.715 50.4686L210.449 50.8952C210.509 50.8952 210.509 50.989 210.449 51.0317L209.749 51.4412C209.712 51.4599 209.671 51.4697 209.63 51.4697C209.588 51.4697 209.547 51.4599 209.51 51.4412L208.777 51.0146C208.717 51.0146 208.726 50.9208 208.777 50.8781L209.476 50.4772C209.513 50.4571 209.553 50.4459 209.595 50.4444C209.636 50.4429 209.678 50.4512 209.715 50.4686Z" fill="#3A2C6D"/>
<path d="M208.674 49.8715L209.408 50.2981C209.468 50.2981 209.459 50.3919 209.408 50.4346L208.7 50.8355C208.665 50.8542 208.625 50.8639 208.585 50.8639C208.545 50.8639 208.505 50.8542 208.47 50.8355L207.728 50.409C207.668 50.409 207.676 50.3151 207.728 50.2725L208.436 49.8715C208.473 49.8528 208.514 49.843 208.555 49.843C208.596 49.843 208.637 49.8528 208.674 49.8715Z" fill="#3A2C6D"/>
<path d="M207.625 49.2658L208.367 49.6923C208.427 49.6923 208.419 49.7862 208.367 49.8288L207.659 50.2298C207.624 50.2485 207.584 50.2582 207.544 50.2582C207.504 50.2582 207.464 50.2485 207.429 50.2298L206.687 49.8032C206.627 49.8032 206.636 49.7009 206.687 49.6668L207.395 49.2573C207.431 49.2399 207.471 49.2316 207.511 49.2331C207.551 49.2346 207.59 49.2458 207.625 49.2658Z" fill="#3A2C6D"/>
<path d="M206.081 48.3701L207.318 49.0867C207.378 49.0867 207.369 49.1805 207.318 49.2232L206.619 49.6326C206.581 49.6496 206.54 49.6584 206.499 49.6584C206.458 49.6584 206.417 49.6496 206.38 49.6326L205.143 48.9161C205.083 48.9161 205.083 48.8222 205.143 48.7796L205.842 48.3701C205.88 48.3531 205.92 48.3444 205.962 48.3444C206.003 48.3444 206.044 48.3531 206.081 48.3701Z" fill="#3A2C6D"/>
<path d="M219.619 55.024L220.362 55.4506C220.421 55.4506 220.413 55.5444 220.362 55.5871L219.654 55.988C219.619 56.0091 219.579 56.0203 219.538 56.0203C219.498 56.0203 219.458 56.0091 219.423 55.988L218.681 55.57C218.621 55.57 218.63 55.4676 218.681 55.4335L219.389 55.024C219.425 55.0054 219.464 54.9956 219.504 54.9956C219.544 54.9956 219.584 55.0054 219.619 55.024Z" fill="#3A2C6D"/>
<path d="M218.579 54.4184L219.312 54.8449C219.372 54.8449 219.364 54.9388 219.312 54.9814L218.613 55.3909C218.575 55.4079 218.535 55.4166 218.493 55.4166C218.452 55.4166 218.411 55.4079 218.374 55.3909L217.64 54.9644C217.581 54.9644 217.581 54.8705 217.64 54.8279L218.34 54.4184C218.377 54.3997 218.418 54.3899 218.459 54.3899C218.501 54.3899 218.542 54.3997 218.579 54.4184Z" fill="#3A2C6D"/>
<path d="M217.529 53.8127L218.263 54.2393C218.331 54.2393 218.323 54.3331 218.263 54.3758L217.564 54.7852C217.526 54.8022 217.485 54.811 217.444 54.811C217.403 54.811 217.362 54.8022 217.325 54.7852L216.591 54.3587C216.531 54.3587 216.54 54.2648 216.591 54.2222L217.291 53.8127C217.328 53.7958 217.369 53.787 217.41 53.787C217.451 53.787 217.492 53.7958 217.529 53.8127Z" fill="#3A2C6D"/>
<path d="M216.489 53.2071L217.231 53.6336C217.291 53.6336 217.282 53.736 217.231 53.7701L216.523 54.1796C216.487 54.1983 216.448 54.2081 216.408 54.2081C216.367 54.2081 216.328 54.1983 216.292 54.1796L215.55 53.7531C215.491 53.7531 215.499 53.6592 215.55 53.6166L216.258 53.2156C216.293 53.1956 216.332 53.1844 216.372 53.1829C216.413 53.1814 216.452 53.1897 216.489 53.2071Z" fill="#3A2C6D"/>
<path d="M215.448 52.6098L216.182 53.0364C216.241 53.0364 216.233 53.1302 216.182 53.1729L215.482 53.5823C215.444 53.5993 215.404 53.6081 215.363 53.6081C215.321 53.6081 215.281 53.5993 215.243 53.5823L214.509 53.1558C214.45 53.1558 214.45 53.062 214.509 53.0193L215.209 52.6098C215.247 52.5929 215.287 52.5841 215.328 52.5841C215.37 52.5841 215.41 52.5929 215.448 52.6098Z" fill="#3A2C6D"/>
<path d="M214.399 52.0042L215.141 52.4308C215.2 52.4308 215.192 52.5331 215.141 52.5673L214.433 52.9767C214.397 52.9954 214.358 53.0052 214.318 53.0052C214.277 53.0052 214.238 52.9954 214.202 52.9767L213.46 52.5502C213.4 52.5502 213.409 52.4564 213.46 52.4137L214.168 52.0128C214.203 51.9927 214.242 51.9815 214.282 51.98C214.322 51.9785 214.362 51.9868 214.399 52.0042Z" fill="#3A2C6D"/>
<path d="M213.349 51.4071L214.091 51.8336C214.151 51.8336 214.143 51.9275 214.091 51.9616L213.383 52.3711C213.348 52.3898 213.308 52.3995 213.268 52.3995C213.228 52.3995 213.189 52.3898 213.153 52.3711L212.411 51.9445C212.351 51.9445 212.36 51.8507 212.411 51.8081L213.119 51.4071C213.154 51.3884 213.194 51.3787 213.234 51.3787C213.274 51.3787 213.314 51.3884 213.349 51.4071Z" fill="#3A2C6D"/>
<path d="M212.309 50.827L213.042 51.2535C213.102 51.2535 213.093 51.3473 213.042 51.39L212.343 51.7909C212.306 51.8097 212.265 51.8194 212.223 51.8194C212.182 51.8194 212.141 51.8097 212.104 51.7909L211.37 51.3644C211.31 51.3644 211.319 51.2706 211.37 51.2364L212.07 50.827C212.107 50.8082 212.148 50.7985 212.189 50.7985C212.231 50.7985 212.272 50.8082 212.309 50.827Z" fill="#3A2C6D"/>
<path d="M211.259 50.1957L212.001 50.6223C212.061 50.6223 212.053 50.7161 212.001 50.7588L211.293 51.1597C211.258 51.1784 211.218 51.1882 211.178 51.1882C211.138 51.1882 211.099 51.1784 211.063 51.1597L210.321 50.7332C210.261 50.7332 210.27 50.6308 210.321 50.5967L211.029 50.1872C211.065 50.1698 211.105 50.1615 211.145 50.163C211.185 50.1645 211.224 50.1757 211.259 50.1957Z" fill="#3A2C6D"/>
<path d="M210.219 49.5899L210.952 50.0165C211.012 50.0165 211.003 50.1103 210.952 50.153L210.244 50.5624C210.208 50.5792 210.169 50.5879 210.129 50.5879C210.089 50.5879 210.05 50.5792 210.014 50.5624L209.272 50.1359C209.212 50.1359 209.22 50.0421 209.272 49.9994L209.98 49.5899C210.017 49.573 210.058 49.5642 210.099 49.5642C210.14 49.5642 210.181 49.573 210.219 49.5899Z" fill="#3A2C6D"/>
<path d="M209.169 48.9843L209.903 49.4109C209.963 49.4109 209.963 49.5047 209.903 49.5474L209.203 49.9569C209.166 49.9756 209.125 49.9854 209.084 49.9854C209.042 49.9854 209.002 49.9756 208.964 49.9569L208.231 49.5303C208.171 49.5303 208.18 49.4365 208.231 49.3938L208.93 48.9843C208.968 48.9674 209.009 48.9586 209.05 48.9586C209.091 48.9586 209.132 48.9674 209.169 48.9843Z" fill="#3A2C6D"/>
<path d="M208.12 48.3871L208.862 48.8051C208.922 48.8051 208.913 48.9075 208.862 48.9416L208.154 49.3511C208.119 49.3698 208.079 49.3795 208.039 49.3795C207.999 49.3795 207.959 49.3698 207.924 49.3511L207.182 48.9245C207.122 48.9245 207.13 48.8307 207.182 48.788L207.89 48.3871C207.924 48.366 207.964 48.3549 208.005 48.3549C208.045 48.3549 208.085 48.366 208.12 48.3871Z" fill="#3A2C6D"/>
<path d="M220.669 55.6298L221.906 56.3464C221.965 56.3464 221.965 56.4402 221.906 56.4829L221.206 56.8838C221.169 56.9026 221.128 56.9124 221.087 56.9124C221.045 56.9124 221.004 56.9026 220.967 56.8838L219.73 56.1673C219.671 56.1673 219.679 56.0734 219.73 56.0308L220.43 55.6298C220.467 55.6111 220.508 55.6013 220.549 55.6013C220.591 55.6013 220.632 55.6111 220.669 55.6298Z" fill="#3A2C6D"/>
<path d="M206.132 48.336L206.866 48.7625C206.901 48.7791 206.938 48.7878 206.977 48.7878C207.015 48.7878 207.053 48.7791 207.088 48.7625L207.83 48.3274C207.843 48.3226 207.854 48.3138 207.862 48.3024C207.87 48.291 207.874 48.2774 207.874 48.2634C207.874 48.2495 207.87 48.2359 207.862 48.2245C207.854 48.213 207.843 48.2043 207.83 48.1995H207.77C207.719 48.1995 207.719 48.1227 207.77 48.0886L208.555 47.6364C208.623 47.6364 208.623 47.5426 208.555 47.5085L208.086 47.2355C208.051 47.2188 208.013 47.2102 207.975 47.2102C207.937 47.2102 207.899 47.2188 207.864 47.2355L207.13 47.662L206.977 47.7473L206.866 47.8156L206.755 47.8753L206.124 48.2421C206.113 48.2559 206.108 48.2733 206.109 48.2907C206.111 48.3082 206.119 48.3244 206.132 48.336Z" fill="#3A2C6D"/>
<path d="M224.166 54.1625L224.909 54.589C224.968 54.589 224.96 54.6829 224.909 54.7255L224.2 55.1265C224.166 55.1475 224.126 55.1587 224.085 55.1587C224.045 55.1587 224.005 55.1475 223.97 55.1265L223.228 54.7084C223.168 54.6658 223.177 54.6061 223.228 54.572L223.936 54.1625C223.972 54.1438 224.011 54.134 224.051 54.134C224.091 54.134 224.131 54.1438 224.166 54.1625Z" fill="#3A2C6D"/>
<path d="M223.16 53.5568L223.902 53.9834C223.962 53.9834 223.953 54.0857 223.902 54.1199L223.194 54.5293C223.158 54.548 223.119 54.5578 223.079 54.5578C223.039 54.5578 222.999 54.548 222.963 54.5293L222.221 54.1028C222.162 54.1028 222.17 54.009 222.221 53.9663L222.929 53.5654C222.964 53.5454 223.003 53.5341 223.043 53.5326C223.084 53.5312 223.124 53.5395 223.16 53.5568Z" fill="#3A2C6D"/>
<path d="M222.119 52.9597L222.861 53.3862C222.921 53.3862 222.912 53.48 222.861 53.5227L222.153 53.9236C222.118 53.9423 222.078 53.9521 222.038 53.9521C221.998 53.9521 221.958 53.9423 221.923 53.9236L221.181 53.4971C221.121 53.4971 221.129 53.3947 221.181 53.3606L221.889 52.9511C221.925 52.9337 221.965 52.9254 222.005 52.9269C222.045 52.9284 222.084 52.9396 222.119 52.9597Z" fill="#3A2C6D"/>
<path d="M213.255 47.8411L213.989 48.2677C214.049 48.2677 214.04 48.3615 213.989 48.4042L213.29 48.8051C213.253 48.8238 213.212 48.8336 213.17 48.8336C213.129 48.8336 213.088 48.8238 213.051 48.8051L212.317 48.3786C212.249 48.3786 212.257 48.2847 212.317 48.2421L213.017 47.8411C213.054 47.8224 213.095 47.8126 213.136 47.8126C213.178 47.8126 213.218 47.8224 213.255 47.8411Z" fill="#3A2C6D"/>
<path d="M212.223 47.2354L212.965 47.662C213.025 47.662 213.017 47.7558 212.965 47.7985L212.257 48.208C212.221 48.2247 212.182 48.2334 212.142 48.2334C212.102 48.2334 212.063 48.2247 212.027 48.208L211.285 47.7814C211.225 47.7814 211.234 47.6876 211.285 47.6449L211.993 47.2354C212.029 47.2187 212.068 47.21 212.108 47.21C212.148 47.21 212.187 47.2187 212.223 47.2354Z" fill="#3A2C6D"/>
<path d="M211.165 46.6383L211.908 47.0648C211.967 47.0648 211.959 47.1587 211.908 47.2013L211.2 47.6023C211.164 47.621 211.125 47.6307 211.084 47.6307C211.044 47.6307 211.005 47.621 210.969 47.6023L210.227 47.1757C210.167 47.1757 210.176 47.0819 210.227 47.0478L210.935 46.6383C210.971 46.6196 211.01 46.6099 211.05 46.6099C211.09 46.6099 211.13 46.6196 211.165 46.6383Z" fill="#3A2C6D"/>
<path d="M210.125 46.0327L210.867 46.4592C210.927 46.4592 210.918 46.5531 210.867 46.5957L210.159 47.0052C210.123 47.022 210.083 47.0307 210.044 47.0307C210.004 47.0307 209.965 47.022 209.928 47.0052L209.186 46.5787C209.127 46.5787 209.135 46.4848 209.186 46.4422L209.894 46.0327C209.93 46.0159 209.97 46.0072 210.01 46.0072C210.049 46.0072 210.089 46.0159 210.125 46.0327Z" fill="#3A2C6D"/>
<path d="M220.814 52.2004L221.82 52.7805C221.88 52.7805 221.872 52.8828 221.82 52.917L221.112 53.3264C221.077 53.3451 221.037 53.3549 220.997 53.3549C220.957 53.3549 220.918 53.3451 220.882 53.3264L219.901 52.7549C219.841 52.7549 219.841 52.661 219.901 52.6184L220.6 52.2089C220.668 52.1791 220.744 52.176 220.814 52.2004Z" fill="#3A2C6D"/>
<path d="M214.296 48.4383L215.303 49.0184C215.363 49.0184 215.354 49.1123 215.303 49.1549L214.595 49.5644C214.559 49.5812 214.519 49.5899 214.48 49.5899C214.44 49.5899 214.401 49.5812 214.364 49.5644L213.358 48.9843C213.298 48.9843 213.298 48.8905 213.358 48.8478L214.057 48.4383C214.095 48.4214 214.136 48.4126 214.177 48.4126C214.218 48.4126 214.259 48.4214 214.296 48.4383Z" fill="#3A2C6D"/>
<path d="M215.636 49.1976L220.541 52.0299C220.6 52.0299 220.592 52.1237 220.541 52.1663L219.841 52.5673C219.804 52.586 219.763 52.5958 219.722 52.5958C219.68 52.5958 219.639 52.586 219.602 52.5673L214.697 49.7351C214.637 49.7351 214.646 49.6412 214.697 49.6071L215.405 49.1976C215.441 49.179 215.48 49.1692 215.52 49.1692C215.561 49.1692 215.6 49.179 215.636 49.1976Z" fill="#3A2C6D"/>
<path d="M220.353 54.2392L221.087 54.6658C221.146 54.6658 221.138 54.7596 221.087 54.8023L220.387 55.2117C220.35 55.2287 220.309 55.2375 220.268 55.2375C220.227 55.2375 220.186 55.2287 220.148 55.2117L219.415 54.7852C219.355 54.7852 219.355 54.6914 219.415 54.6487L220.114 54.2392C220.152 54.2223 220.192 54.2135 220.234 54.2135C220.275 54.2135 220.316 54.2223 220.353 54.2392Z" fill="#3A2C6D"/>
<path d="M219.304 53.6677L220.046 54.0942C220.106 54.0942 220.097 54.1966 220.046 54.2307L219.338 54.6402C219.302 54.6589 219.263 54.6686 219.223 54.6686C219.183 54.6686 219.143 54.6589 219.108 54.6402L218.365 54.2136C218.306 54.2136 218.314 54.1198 218.365 54.0772L219.073 53.6762C219.108 53.6562 219.147 53.645 219.188 53.6435C219.228 53.642 219.268 53.6503 219.304 53.6677Z" fill="#3A2C6D"/>
<path d="M218.263 53.0706L219.005 53.4972C219.065 53.4972 219.056 53.591 219.005 53.6336L218.297 54.0346C218.26 54.0533 218.219 54.0631 218.178 54.0631C218.136 54.0631 218.095 54.0533 218.058 54.0346L217.325 53.6081C217.265 53.5654 217.273 53.5057 217.325 53.4716L218.033 53.0621C218.069 53.0447 218.109 53.0364 218.149 53.0379C218.189 53.0394 218.228 53.0506 218.263 53.0706Z" fill="#3A2C6D"/>
<path d="M217.222 52.4648L217.956 52.8914C218.016 52.8914 218.007 52.9852 217.956 53.0278L217.256 53.4373C217.219 53.4543 217.178 53.4631 217.137 53.4631C217.096 53.4631 217.055 53.4543 217.018 53.4373L216.284 53.0108C216.224 53.0108 216.233 52.9169 216.284 52.8743L216.983 52.4648C217.021 52.4479 217.062 52.4391 217.103 52.4391C217.144 52.4391 217.185 52.4479 217.222 52.4648Z" fill="#3A2C6D"/>
<path d="M216.173 51.8677L216.915 52.2942C216.975 52.2942 216.966 52.3881 216.915 52.4307L216.207 52.8317C216.172 52.8503 216.132 52.8601 216.092 52.8601C216.052 52.8601 216.012 52.8503 215.977 52.8317L215.235 52.4051C215.175 52.4051 215.183 52.3113 215.235 52.2686L215.943 51.8677C215.978 51.849 216.018 51.8392 216.058 51.8392C216.098 51.8392 216.137 51.849 216.173 51.8677Z" fill="#3A2C6D"/>
<path d="M215.132 51.2621L215.874 51.6886C215.934 51.6886 215.926 51.7824 215.874 51.8251L215.166 52.2346C215.13 52.2514 215.091 52.26 215.051 52.26C215.011 52.26 214.972 52.2514 214.936 52.2346L214.194 51.808C214.134 51.808 214.143 51.7142 214.194 51.6715L214.902 51.2621C214.938 51.2453 214.977 51.2366 215.017 51.2366C215.057 51.2366 215.096 51.2453 215.132 51.2621Z" fill="#3A2C6D"/>
<path d="M214.091 50.6564L214.825 51.0829C214.885 51.0829 214.885 51.1853 214.825 51.2194L214.126 51.6289C214.089 51.6476 214.048 51.6574 214.006 51.6574C213.965 51.6574 213.924 51.6476 213.887 51.6289L213.153 51.2024C213.093 51.2024 213.102 51.1085 213.153 51.0659L213.853 50.6649C213.889 50.6448 213.93 50.6336 213.971 50.6321C214.013 50.6306 214.054 50.639 214.091 50.6564Z" fill="#3A2C6D"/>
<path d="M213.076 50.0591L213.81 50.4857C213.87 50.4857 213.861 50.5795 213.81 50.6222L213.11 51.0231C213.074 51.0441 213.033 51.0551 212.991 51.0551C212.949 51.0551 212.908 51.0441 212.872 51.0231L212.138 50.6051C212.078 50.6051 212.078 50.5027 212.138 50.4686L212.837 50.0591C212.874 50.0404 212.915 50.0306 212.957 50.0306C212.998 50.0306 213.039 50.0404 213.076 50.0591Z" fill="#3A2C6D"/>
<path d="M212.001 49.4535L212.744 49.88C212.803 49.88 212.795 49.9738 212.744 50.0165L212.036 50.426C211.999 50.4428 211.96 50.4515 211.92 50.4515C211.881 50.4515 211.841 50.4428 211.805 50.426L211.063 49.9994C211.003 49.9994 211.012 49.9056 211.063 49.8629L211.771 49.4535C211.807 49.4367 211.846 49.428 211.886 49.428C211.926 49.428 211.965 49.4367 212.001 49.4535Z" fill="#3A2C6D"/>
<path d="M210.961 48.8564L211.694 49.2829C211.763 49.2829 211.754 49.3768 211.694 49.4109L210.986 49.8204C210.949 49.8391 210.908 49.8489 210.867 49.8489C210.825 49.8489 210.784 49.8391 210.747 49.8204L210.014 49.3938C209.954 49.3938 209.963 49.3 210.014 49.2573L210.713 48.8564C210.751 48.8362 210.794 48.8257 210.837 48.8257C210.88 48.8257 210.923 48.8362 210.961 48.8564Z" fill="#3A2C6D"/>
<path d="M209.92 48.2678L210.654 48.6943C210.713 48.6943 210.705 48.7881 210.654 48.8308L209.954 49.2403C209.917 49.2572 209.876 49.266 209.835 49.266C209.793 49.266 209.753 49.2572 209.715 49.2403L208.982 48.8137C208.922 48.8137 208.93 48.7199 208.982 48.6772L209.664 48.2678C209.703 48.2461 209.747 48.2347 209.792 48.2347C209.837 48.2347 209.881 48.2461 209.92 48.2678Z" fill="#3A2C6D"/>
<path d="M208.871 47.645L209.613 48.0715C209.673 48.0715 209.664 48.1739 209.613 48.208L208.905 48.6175C208.869 48.6362 208.83 48.6459 208.79 48.6459C208.749 48.6459 208.71 48.6362 208.674 48.6175L207.932 48.1909C207.873 48.1909 207.881 48.0971 207.932 48.0545L208.64 47.6535C208.675 47.6335 208.714 47.6223 208.754 47.6208C208.795 47.6193 208.834 47.6276 208.871 47.645Z" fill="#3A2C6D"/>
<path d="M221.394 54.879L222.921 55.7321C222.981 55.7321 222.972 55.826 222.921 55.8686L222.213 56.2781C222.177 56.2949 222.137 56.3036 222.098 56.3036C222.058 56.3036 222.019 56.2949 221.982 56.2781L220.455 55.425C220.396 55.425 220.404 55.3312 220.455 55.2885L221.155 54.8876C221.191 54.8675 221.232 54.8563 221.273 54.8548C221.315 54.8533 221.356 54.8616 221.394 54.879Z" fill="#3A2C6D"/>
<path d="M221.88 53.9919L222.614 54.4184C222.682 54.4184 222.673 54.5123 222.614 54.5464L221.914 54.9559C221.877 54.9746 221.836 54.9844 221.795 54.9844C221.753 54.9844 221.712 54.9746 221.675 54.9559L220.942 54.5293C220.882 54.5293 220.891 54.4355 220.942 54.3928L221.641 53.9919C221.678 53.9731 221.719 53.9634 221.761 53.9634C221.802 53.9634 221.843 53.9731 221.88 53.9919Z" fill="#3A2C6D"/>
<path d="M220.839 53.3862L221.573 53.8127C221.633 53.8127 221.624 53.9065 221.573 53.9492L220.873 54.3587C220.836 54.3756 220.795 54.3844 220.754 54.3844C220.713 54.3844 220.672 54.3756 220.635 54.3587L219.901 53.9321C219.841 53.9321 219.85 53.8383 219.901 53.7956L220.6 53.3862C220.638 53.3674 220.678 53.3577 220.72 53.3577C220.761 53.3577 220.802 53.3674 220.839 53.3862Z" fill="#3A2C6D"/>
<path d="M219.79 52.7805L220.532 53.207C220.592 53.207 220.583 53.3094 220.532 53.3435L219.824 53.753C219.789 53.7717 219.749 53.7814 219.709 53.7814C219.669 53.7814 219.629 53.7717 219.594 53.753L218.852 53.3264C218.792 53.3264 218.8 53.2326 218.852 53.1899L219.56 52.789C219.595 52.769 219.634 52.7578 219.674 52.7563C219.714 52.7548 219.754 52.7631 219.79 52.7805Z" fill="#3A2C6D"/>
<path d="M218.749 52.1833L219.491 52.6099C219.551 52.6099 219.543 52.7037 219.491 52.7464L218.783 53.1473C218.749 53.1684 218.709 53.1796 218.668 53.1796C218.628 53.1796 218.588 53.1684 218.553 53.1473L217.811 52.7293C217.751 52.6867 217.76 52.6269 217.811 52.5928L218.519 52.1833C218.554 52.1647 218.594 52.1549 218.634 52.1549C218.674 52.1549 218.714 52.1647 218.749 52.1833Z" fill="#3A2C6D"/>
<path d="M217.709 51.5776L218.442 52.0042C218.502 52.0042 218.502 52.098 218.442 52.1406L217.743 52.5501C217.705 52.5671 217.664 52.5758 217.623 52.5758C217.582 52.5758 217.541 52.5671 217.504 52.5501L216.77 52.1236C216.71 52.1236 216.719 52.0297 216.77 51.9871L217.47 51.5776C217.507 51.5607 217.548 51.5519 217.589 51.5519C217.63 51.5519 217.671 51.5607 217.709 51.5776Z" fill="#3A2C6D"/>
<path d="M216.668 50.9805L217.401 51.4071C217.461 51.4071 217.453 51.5009 217.401 51.535L216.702 51.9445C216.665 51.9632 216.624 51.973 216.582 51.973C216.541 51.973 216.5 51.9632 216.463 51.9445L215.729 51.518C215.67 51.518 215.67 51.4241 215.729 51.3815L216.429 50.9805C216.466 50.9618 216.507 50.952 216.548 50.952C216.59 50.952 216.631 50.9618 216.668 50.9805Z" fill="#3A2C6D"/>
<path d="M215.636 50.3748L216.378 50.8014C216.437 50.8014 216.429 50.8952 216.378 50.9379L215.67 51.3474C215.634 51.3641 215.594 51.3728 215.555 51.3728C215.515 51.3728 215.475 51.3641 215.439 51.3474L214.697 50.9208C214.637 50.9208 214.646 50.827 214.697 50.7843L215.405 50.3748C215.441 50.3581 215.481 50.3494 215.52 50.3494C215.56 50.3494 215.599 50.3581 215.636 50.3748Z" fill="#3A2C6D"/>
<path d="M214.578 49.7691L215.32 50.1957C215.38 50.1957 215.371 50.298 215.32 50.3321L214.612 50.7416C214.576 50.7603 214.537 50.7701 214.497 50.7701C214.457 50.7701 214.417 50.7603 214.382 50.7416L213.639 50.3151C213.58 50.3151 213.588 50.2213 213.639 50.1786L214.347 49.7776C214.382 49.7576 214.421 49.7464 214.462 49.7449C214.502 49.7434 214.542 49.7517 214.578 49.7691Z" fill="#3A2C6D"/>
<path d="M213.537 49.172L214.271 49.5985C214.33 49.5985 214.322 49.6924 214.271 49.735L213.571 50.136C213.534 50.1547 213.493 50.1645 213.452 50.1645C213.41 50.1645 213.369 50.1547 213.332 50.136L212.599 49.7094C212.539 49.7094 212.547 49.6071 212.599 49.5729L213.298 49.1635C213.336 49.146 213.377 49.1377 213.419 49.1392C213.46 49.1407 213.501 49.1519 213.537 49.172Z" fill="#3A2C6D"/>
<path d="M212.496 48.5663L213.23 48.9928C213.29 48.9928 213.281 49.0866 213.23 49.1293L212.53 49.5388C212.493 49.5557 212.452 49.5645 212.411 49.5645C212.37 49.5645 212.329 49.5557 212.291 49.5388L211.558 49.1122C211.49 49.1122 211.498 49.0184 211.558 48.9757L212.257 48.5663C212.295 48.5493 212.336 48.5405 212.377 48.5405C212.418 48.5405 212.459 48.5493 212.496 48.5663Z" fill="#3A2C6D"/>
<path d="M211.447 47.9691L212.189 48.3957C212.249 48.3957 212.24 48.4895 212.189 48.5321L211.481 48.9331C211.446 48.9518 211.406 48.9615 211.366 48.9615C211.326 48.9615 211.286 48.9518 211.251 48.9331L210.509 48.5066C210.449 48.5066 210.457 48.4127 210.509 48.3786L211.217 47.9691C211.252 47.9504 211.292 47.9407 211.332 47.9407C211.372 47.9407 211.411 47.9504 211.447 47.9691Z" fill="#3A2C6D"/>
<path d="M209.118 46.6213L211.148 47.79C211.208 47.79 211.2 47.8838 211.148 47.9265L210.44 48.336C210.403 48.3529 210.362 48.3617 210.321 48.3617C210.28 48.3617 210.239 48.3529 210.201 48.336L208.18 47.1587C208.12 47.1587 208.12 47.0649 208.18 47.0308L208.879 46.6213C208.916 46.6025 208.957 46.5928 208.999 46.5928C209.04 46.5928 209.081 46.6025 209.118 46.6213Z" fill="#3A2C6D"/>
<path d="M222.921 54.5891L223.927 55.1692C223.987 55.1692 223.979 55.2715 223.927 55.3057L223.228 55.7151C223.191 55.7339 223.15 55.7436 223.109 55.7436C223.067 55.7436 223.026 55.7339 222.989 55.7151L221.982 55.1351C221.923 55.1351 221.931 55.0412 221.982 54.9986L222.691 54.5891C222.727 54.5723 222.766 54.5636 222.806 54.5636C222.845 54.5636 222.885 54.5723 222.921 54.5891Z" fill="#3A2C6D"/>
<path d="M205.032 48.9758L219.841 57.5065C219.901 57.5065 219.901 57.6004 219.841 57.643L219.491 57.8392C219.456 57.8579 219.416 57.8677 219.376 57.8677C219.336 57.8677 219.297 57.8579 219.261 57.8392L204.443 49.3085C204.383 49.3085 204.392 49.2146 204.443 49.172L204.793 48.9672C204.831 48.9516 204.872 48.9443 204.913 48.9457C204.954 48.9472 204.995 48.9574 205.032 48.9758Z" fill="#3A2C6D"/>
<path d="M222.366 49.3597L222.264 49.4109L219.705 50.8952L215.158 48.2678L215.064 48.208L217.717 46.681L222.366 49.3597Z" fill="#BFBFBF"/>
<path d="M222.264 49.4108L219.705 50.8952L215.158 48.2677L217.717 46.7919L222.264 49.4108Z" fill="#E5E5E5"/>
<path d="M229.66 52.8061V53.0364C229.662 53.2001 229.62 53.3613 229.539 53.5036C229.458 53.6459 229.341 53.7643 229.2 53.8469L220.174 59.0506C220.033 59.134 219.873 59.1779 219.709 59.1779C219.545 59.1779 219.385 59.134 219.244 59.0506L202.916 49.6668C202.767 49.5811 202.645 49.4563 202.562 49.3059C202.48 49.1554 202.44 48.9852 202.447 48.8137V48.5834L219.705 58.5473L229.66 52.8061Z" fill="#E5E5E5"/>
<path d="M219.449 58.6924C219.295 58.7531 219.129 58.7785 218.963 58.7667C218.798 58.7549 218.637 58.7062 218.493 58.6241L202.285 49.2403C202.143 49.1589 202.022 49.047 201.929 48.9127C201.836 48.7784 201.774 48.6251 201.747 48.464L199.965 37.8517C199.96 37.792 199.96 37.7322 199.965 37.6725C199.964 37.526 199.993 37.3809 200.05 37.246C200.108 37.1111 200.192 36.9892 200.297 36.8877L217.188 46.6384C217.29 46.7009 217.377 46.784 217.445 46.8825C217.513 46.981 217.559 47.0925 217.581 47.2099L219.449 58.6924Z" fill="#F4F4F4"/>
<path d="M219.705 58.5558L219.594 58.6241L219.449 58.6923L217.521 47.2099C217.499 47.0925 217.453 46.9809 217.385 46.8825C217.318 46.784 217.23 46.7008 217.128 46.6383L200.28 36.8877C200.342 36.8171 200.418 36.7592 200.502 36.717L217.427 46.4848C217.53 46.5464 217.62 46.6292 217.689 46.7277C217.758 46.8262 217.805 46.9382 217.828 47.0564L219.705 58.5558Z" fill="#E5E5E5"/>
<path d="M231.981 13.1465C231.981 13.1465 231.767 17.1815 231.861 17.5398C231.955 17.8981 233.712 19.0839 234.224 19.5105C234.736 19.937 231.435 23.1957 229.831 23.9294C228.227 24.663 223.126 22.7266 223.006 20.2185C222.887 17.7105 223.859 15.6204 224.661 15.5095C225.463 15.3986 231.981 13.1465 231.981 13.1465Z" fill="#FFCEA9"/>
<path d="M232.424 18.2394C232.424 18.2394 229.498 22.6071 225.412 23.0166C224.124 21.7455 224.004 17.2242 225.787 15.7825C225.787 15.7825 224.149 14.4517 223.023 14.7162C221.804 15.4369 220.892 16.5819 220.464 17.9323C219.418 20.9467 218.929 24.1266 219.022 27.3161C219.091 31.5815 219.022 42.4242 219.022 42.4242C219.262 43.7034 219.77 44.9174 220.512 45.9863C221.255 47.0552 222.215 47.9548 223.33 48.626C226.284 50.3014 229.766 50.7837 233.064 49.9739C235.137 49.4876 235.905 48.336 236.621 46.826C236.434 43.8317 235.248 37.6469 235.768 33.8678C236.289 30.0886 237.065 27.2735 237.27 24.228C237.474 21.1825 236.869 21.2337 235.333 20.1417C234.411 19.4381 233.439 18.8023 232.424 18.2394Z" fill="#F4F4F4"/>
<path d="M227.732 53.0364C228.467 52.5474 229.233 52.1084 230.027 51.7226C230.767 51.4866 231.44 51.0771 231.989 50.5283C232.706 49.8288 233.883 47.1672 234.727 44.5568C235.568 41.6294 235.9 38.5794 235.709 35.5397C235.359 31.8971 234.045 26.8042 233.712 24.7142C233.38 22.6241 234.054 21.7796 235.035 21.0118C236.178 20.1075 237.756 20.5085 238.6 23.4431C239.688 27.5032 240.318 31.6723 240.477 35.8724C240.512 38.9926 240.031 42.097 239.053 45.0601C238.183 47.5984 237.008 50.0218 235.555 52.2771C235.154 52.9511 235.018 53.5568 234.403 54.9387C233.813 56.3274 232.894 57.5514 231.725 58.5046C230.701 59.2383 230.215 59.3577 229.967 59.2041C229.72 59.0506 229.728 58.7008 230.163 58.3511C230.89 57.7801 231.508 57.0838 231.989 56.2951C231.989 56.2951 231.093 57.1994 230.505 57.6942C229.987 58.1319 229.413 58.4991 228.799 58.7861C228.201 59.0506 227.365 58.5387 227.792 58.1378C228.218 57.7368 228.645 57.5321 229.498 56.7899C229.957 56.4006 230.367 55.9565 230.718 55.4677C230.118 55.9299 229.482 56.3435 228.816 56.7046C228.301 57.0158 227.711 57.1782 227.109 57.1738C226.794 57.1738 226.41 56.7131 227.007 56.3207C227.828 55.8761 228.593 55.3348 229.285 54.7084C229.942 54.0601 230.309 53.5056 230.138 53.497C229.967 53.4885 229.592 53.8895 228.824 54.1368C228.056 54.3842 227.229 54.1368 227.118 53.7359C227.007 53.335 227.016 53.3861 227.732 53.0364Z" fill="#FFCEA9"/>
<path d="M222.836 7.12374C223.322 3.99294 225.582 1.62138 228.807 1.80053C230.108 1.86668 231.355 2.34002 232.371 3.1536C233.388 3.96719 234.124 5.07985 234.474 6.33425C234.824 7.58865 234.77 8.92131 234.321 10.1438C233.872 11.3662 233.051 12.4167 231.972 13.1465C231.858 13.6221 231.689 14.083 231.469 14.5199C230.334 15.8507 226.879 16.7038 225.872 16.5332C225.284 16.4797 224.724 16.2501 224.268 15.8742C223.812 15.4984 223.479 14.9938 223.313 14.4261C222.238 11.9692 222.571 8.67634 222.836 7.12374Z" fill="#FFCEA9"/>
<path d="M231.981 13.1465L231.682 10.4081C231.682 10.4081 233.917 4.62421 228.636 5.73321C225.156 6.46686 224.277 6.79103 223.219 4.45359C222.162 2.11615 225.873 0.00905089 230.334 0.597675C231.863 0.755778 233.277 1.48304 234.295 2.63509C235.312 3.78714 235.86 5.27975 235.828 6.81662C235.717 8.53984 235.256 12.0204 231.981 13.1465Z" fill="#3A2C6D"/>
<path d="M241.015 28.8431C241.015 28.8431 238.131 31.7094 234.727 30.8819C234.241 30.5492 233.064 23.8526 233.064 23.8526C233.064 23.8526 233.064 20.1417 235.913 20.2355C238.763 20.3294 241.015 28.8431 241.015 28.8431Z" fill="#EDEDED"/>
<path d="M219.261 23.281C218.455 23.2519 217.691 22.9127 217.128 22.3341C217.248 20.8326 219.167 15.1341 223.023 14.7161C221.974 15.4517 221.143 16.4567 220.618 17.6251C220.017 19.4718 219.564 21.363 219.261 23.281Z" fill="#EDEDED"/>
<path d="M392.564 265.931L321.315 224.795C316.836 222.236 313.211 215.283 313.211 209.32V97.2173C313.211 91.2458 316.836 88.5159 321.315 91.0922L392.564 132.236C397.034 134.795 400.66 141.748 400.66 147.711V259.831C400.66 265.803 397.034 268.515 392.564 265.931Z" fill="#211B49"/>
<path d="M395.413 267.569L397.853 266.366L396.207 263.133L395.413 267.569Z" fill="#211B49"/>
<path d="M314.542 91.4079C315.259 90.9815 316.013 90.619 316.794 90.3245L318.602 93.8989L314.542 91.4079Z" fill="#211B49"/>
<path d="M390.696 266.869L319.438 225.708C314.968 223.149 311.342 216.196 311.342 210.233V98.1557C311.342 92.1842 314.968 89.4458 319.438 92.0306L390.696 133.175C395.166 135.734 398.792 142.678 398.792 148.641V260.744C398.792 266.707 395.166 269.454 390.696 266.869Z" fill="#2E245B"/>
<path d="M332.396 115.405L319.438 107.924V103.249L332.396 110.73V115.405Z" fill="#A298E2"/>
<path d="M389.885 148.598L334.828 116.804V112.138L389.885 143.923V148.598Z" fill="#C33AFC"/>
<path d="M332.396 130.368L319.438 122.887V118.212L332.396 125.693V130.368Z" fill="#A298E2"/>
<path d="M371.263 152.804L334.828 131.767V127.092L371.263 148.129V152.804Z" fill="#F4CE2C"/>
<path d="M332.396 137.841L319.438 130.368V125.693L332.396 133.166V137.841Z" fill="#A298E2"/>
<path d="M380.169 165.429L334.828 139.248V134.574L380.169 160.755V165.429Z" fill="#FF8657"/>
<path d="M332.396 145.322L319.438 137.841V133.166L332.396 140.648V145.322Z" fill="#A298E2"/>
<path d="M366.409 164.96L334.828 146.73V142.055L366.409 160.285V164.96Z" fill="#A298E2"/>
<path d="M332.396 122.886L319.438 115.405V110.73L332.396 118.212V122.886Z" fill="#A298E2"/>
<path d="M362.357 140.187L334.828 124.286V119.611L362.357 135.504V140.187Z" fill="#4D3BFF"/>
<path d="M332.396 152.804L319.438 145.322V140.648L332.396 148.129V152.804Z" fill="#A298E2"/>
<path d="M351.019 163.553L334.828 154.203V149.528L351.019 158.878V163.553Z" fill="#C33AFC"/>
<path d="M332.396 167.758L319.438 160.285V155.611L332.396 163.092V167.758Z" fill="#A298E2"/>
<path d="M385.842 198.614L334.828 169.166V164.491L385.842 193.939V198.614Z" fill="#F4CE2C"/>
<path d="M332.396 175.24L319.438 167.758V163.083L332.396 170.565V175.24Z" fill="#A298E2"/>
<path d="M350.209 185.528L334.828 176.648V171.973L350.209 180.853V185.528Z" fill="#FF8657"/>
<path d="M332.396 182.721L319.438 175.24V170.565L332.396 178.047V182.721Z" fill="#A298E2"/>
<path d="M380.169 210.301L334.828 184.12V179.454L380.169 205.627V210.301Z" fill="#A298E2"/>
<path d="M332.396 160.285L319.438 152.804V148.129L332.396 155.611V160.285Z" fill="#A298E2"/>
<path d="M377.738 186.466L334.828 161.685V157.01L377.738 181.792V186.466Z" fill="#4D3BFF"/>
<path d="M332.396 190.203L319.438 182.721V178.047L332.396 185.528V190.203Z" fill="#A298E2"/>
<path d="M340.492 194.878L334.828 191.602V186.927L340.492 190.203V194.878Z" fill="#C33AFC"/>
<path d="M332.396 205.157L319.438 197.684V193.01L332.396 200.491V205.157Z" fill="#A298E2"/>
<path d="M345.355 212.639L334.828 206.565V201.89L345.355 207.964V212.639Z" fill="#F4CE2C"/>
<path d="M332.396 212.639L319.438 205.157V200.483L332.396 207.964V212.639Z" fill="#A298E2"/>
<path d="M362.357 229.939L334.828 214.046V209.372L362.357 225.264V229.939Z" fill="#FF8657"/>
<path d="M332.396 220.12L319.438 212.639V207.964L332.396 215.445V220.12Z" fill="#A298E2"/>
<path d="M378.548 246.77L334.828 221.519V216.844L378.548 242.096V246.77Z" fill="#A298E2"/>
<path d="M332.396 197.684L319.438 190.203V185.528L332.396 193.01V197.684Z" fill="#A298E2"/>
<path d="M389.885 230.878L334.828 199.083V194.409L389.885 226.194V230.878Z" fill="#4D3BFF"/>
<path d="M31.473 181.297L23.6929 177.304L7.39056 186.688C3.69673 188.821 0.693897 187.098 0.693897 182.824V165.063C0.81993 162.739 1.49195 160.477 2.65546 158.461C3.81896 156.446 5.44119 154.732 7.39056 153.461L104.479 97.388C108.173 95.2553 111.176 96.9871 111.176 101.252V119.073C111.05 121.397 110.378 123.659 109.215 125.675C108.051 127.69 106.429 129.404 104.479 130.675L39.2019 168.33" fill="#B1B4C4"/>
<path d="M108.745 96.697L112.413 98.1814L109.308 101.372L107.107 97.8487L108.745 96.697Z" fill="#B1B4C4"/>
<path d="M31.473 181.297L35.3374 182.849L35.3459 179.522L31.9251 178.84L31.473 181.297Z" fill="#B1B4C4"/>
<path d="M7.1517 189.026C7.29673 189.333 2.96309 187.558 2.80953 187.32C2.65598 187.081 8.0645 183.907 8.0645 183.907L7.1517 189.026Z" fill="#B1B4C4"/>
<path d="M43.0663 169.874L108.344 132.194C110.292 130.921 111.913 129.207 113.076 127.192C114.24 125.176 114.913 122.915 115.041 120.592V102.805C115.041 98.5397 112.038 96.8335 108.344 98.9321L11.2209 155.005C9.27245 156.278 7.65095 157.991 6.48757 160.006C5.32418 162.022 4.6516 164.283 4.52422 166.607V184.394C4.52422 188.659 7.52706 190.365 11.2209 188.258L27.5232 178.874L35.3374 182.875L43.0663 169.874Z" fill="#E9EAF2"/>
<path d="M106.331 114.407L13.2342 168.151V161.966L106.331 108.214V114.407Z" fill="#283E79"/>
<path d="M74.1866 143.795L13.2342 178.985V172.792L74.1866 137.602V143.795Z" fill="#283E79"/>
</g>
<defs>
<linearGradient id="paint0_linear_28_152" x1="274.709" y1="247.488" x2="345.602" y2="124.133" gradientUnits="userSpaceOnUse">
<stop offset="0.21" stop-color="white" stop-opacity="0"/>
<stop offset="1" stop-color="white" stop-opacity="0.2"/>
</linearGradient>
<linearGradient id="paint1_linear_28_152" x1="293.072" y1="205.087" x2="273.915" y2="238.421" gradientUnits="userSpaceOnUse">
<stop stop-color="#E9EAF2" stop-opacity="0.8"/>
<stop offset="1" stop-color="#E9EAF2" stop-opacity="0"/>
</linearGradient>
<clipPath id="clip0_28_152">
<rect width="400" height="426.539" fill="white" transform="translate(0.659775 0.495361)"/>
</clipPath>
</defs>
</svg>
