<svg width="351" height="359" viewBox="0 0 351 359" fill="none" xmlns="http://www.w3.org/2000/svg">
<g clip-path="url(#clip0_28_386)">
<path opacity="0.15" d="M52.1182 260.753C80.5379 260.753 103.577 247.451 103.577 231.043C103.577 214.634 80.5379 201.332 52.1182 201.332C23.6985 201.332 0.65979 214.634 0.65979 231.043C0.65979 247.451 23.6985 260.753 52.1182 260.753Z" fill="#D6D8E5"/>
<path opacity="0.5" d="M51.5244 244.435C67.3759 244.435 80.2261 237.017 80.2261 227.866C80.2261 218.716 67.3759 211.298 51.5244 211.298C35.6729 211.298 22.8228 218.716 22.8228 227.866C22.8228 237.017 35.6729 244.435 51.5244 244.435Z" fill="#EDEFF9"/>
<path d="M51.2525 226.715C55.7725 226.715 59.4367 224.597 59.4367 221.986C59.4367 219.374 55.7725 217.257 51.2525 217.257C46.7326 217.257 43.0684 219.374 43.0684 221.986C43.0684 224.597 46.7326 226.715 51.2525 226.715Z" fill="#EDEFF9"/>
<path d="M59.3937 159.296H43.655V221.149H59.3937V159.296Z" fill="#EDEFF9"/>
<path d="M42.9039 158.595C42.9039 158.595 43.3331 171.314 52.3829 194.128C52.3829 194.128 60.8102 175.757 61.683 158.208C62.5558 140.66 42.9039 158.595 42.9039 158.595Z" fill="#FFBC00"/>
<path d="M31.851 110.706L10.9114 131.081L8.42181 157.686L33.7468 144.988L38.354 112.538L31.851 110.706Z" fill="#283E79"/>
<path d="M72.9147 110.706L93.8471 131.081L96.3439 157.686L70.9259 144.108L66.4117 112.538L72.9147 110.706Z" fill="#283E79"/>
<path d="M52.1182 161.807C57.8669 161.807 62.5272 159.116 62.5272 155.798C62.5272 152.479 57.8669 149.788 52.1182 149.788C46.3694 149.788 41.7092 152.479 41.7092 155.798C41.7092 159.116 46.3694 161.807 52.1182 161.807Z" fill="#424956"/>
<path d="M36.3365 149.788V144.38H67.864V149.989L36.3365 149.788Z" fill="#494949"/>
<path d="M52.1182 158.895C60.8341 158.895 67.8998 154.815 67.8998 149.781C67.8998 144.748 60.8341 140.667 52.1182 140.667C43.4022 140.667 36.3365 144.748 36.3365 149.781C36.3365 154.815 43.4022 158.895 52.1182 158.895Z" fill="#2B303F"/>
<path d="M52.0681 152.693C62.7042 152.693 71.3265 147.715 71.3265 141.576C71.3265 135.436 62.7042 130.458 52.0681 130.458C41.4319 130.458 32.8096 135.436 32.8096 141.576C32.8096 147.715 41.4319 152.693 52.0681 152.693Z" fill="#EDEFF9"/>
<path d="M72.8646 121.773C72.8646 122.668 72.8646 123.547 72.8646 124.399C72.8646 125.114 72.8646 125.83 72.8646 126.545C72.8646 127.511 72.8146 128.434 72.7788 129.335C72.7788 130.458 72.7001 131.524 72.6429 132.547C72.5856 133.57 72.5356 134.572 72.464 135.495C72.1707 139.537 72.1779 142.513 71.6771 143.679C68.9514 150.053 59.73 146.54 55.1801 144.251C53.4989 143.407 52.39 142.713 52.39 142.713H51.9751C51.9751 142.713 50.6588 143.428 48.7129 144.201C43.9412 146.133 35.4352 149.559 33.0744 143.657C32.6523 142.598 32.2302 139.1 31.9726 135.437C31.9083 134.522 31.851 133.542 31.7938 132.497C31.7366 131.453 31.708 130.415 31.665 129.292C31.665 128.398 31.615 127.475 31.5935 126.516C31.5935 125.801 31.5935 125.086 31.5935 124.37V121.745C31.4647 96.7846 34.1117 56.8727 42.8538 39.8391C45.3792 34.91 48.4124 31.8982 52.0395 31.7194H52.4544C56.0314 31.9054 59.1004 34.9029 61.6329 39.8105C70.2535 56.7797 73.022 96.5342 72.8646 121.773Z" fill="#EDEFF9"/>
<path d="M52.1683 98.2368C56.1865 98.2368 59.4438 94.9794 59.4438 90.9612C59.4438 86.9431 56.1865 83.6857 52.1683 83.6857C48.1501 83.6857 44.8927 86.9431 44.8927 90.9612C44.8927 94.9794 48.1501 98.2368 52.1683 98.2368Z" fill="#2B303F"/>
<path d="M52.1682 99.3028C50.5184 99.3028 48.9057 98.8136 47.5339 97.897C46.1622 96.9804 45.093 95.6776 44.4617 94.1534C43.8303 92.6292 43.6651 90.952 43.987 89.3339C44.3089 87.7158 45.1033 86.2295 46.2699 85.0629C47.4365 83.8963 48.9228 83.1019 50.5409 82.78C52.159 82.4582 53.8362 82.6234 55.3604 83.2547C56.8846 83.8861 58.1874 84.9552 59.1039 86.327C60.0205 87.6987 60.5097 89.3115 60.5097 90.9613C60.5078 93.173 59.6284 95.2936 58.0645 96.8575C56.5006 98.4214 54.38 99.3009 52.1682 99.3028ZM52.1682 84.7516C50.9398 84.7502 49.7385 85.1132 48.7164 85.7947C47.6943 86.4761 46.8973 87.4454 46.4262 88.58C45.9551 89.7145 45.8311 90.9633 46.0699 92.1683C46.3087 93.3733 46.8995 94.4805 47.7677 95.3496C48.6358 96.2188 49.7423 96.8109 50.947 97.0511C52.1518 97.2912 53.4007 97.1687 54.5357 96.6989C55.6708 96.2291 56.6411 95.4332 57.3237 94.4119C58.0063 93.3906 58.3707 92.1897 58.3707 90.9613C58.3688 89.3162 57.715 87.7389 56.5524 86.575C55.3898 85.4111 53.8133 84.7554 52.1682 84.7516Z" fill="#424956"/>
<path d="M52.1683 76.8466C56.1865 76.8466 59.4438 73.5892 59.4438 69.571C59.4438 65.5528 56.1865 62.2954 52.1683 62.2954C48.1501 62.2954 44.8927 65.5528 44.8927 69.571C44.8927 73.5892 48.1501 76.8466 52.1683 76.8466Z" fill="#2B303F"/>
<path d="M52.1682 77.9339C50.5173 77.9353 48.9031 77.4472 47.5295 76.5314C46.156 75.6155 45.0848 74.3129 44.4514 72.7884C43.818 71.2638 43.6508 69.5857 43.9709 67.9661C44.2911 66.3466 45.0843 64.8583 46.2501 63.6894C47.416 62.5206 48.9022 61.7236 50.521 61.3993C52.1397 61.0749 53.8182 61.2378 55.3444 61.8673C56.8706 62.4968 58.1759 63.5646 59.0953 64.9358C60.0147 66.307 60.5069 67.92 60.5098 69.5709C60.5117 71.7858 59.6341 73.9108 58.07 75.479C56.5059 77.0471 54.3831 77.9301 52.1682 77.9339ZM52.1682 63.3828C50.9395 63.3813 49.7379 63.7445 48.7157 64.4263C47.6934 65.1081 46.8964 66.0778 46.4255 67.2128C45.9546 68.3477 45.8311 69.5969 46.0704 70.8021C46.3098 72.0073 46.9014 73.1144 47.7702 73.9833C48.6391 74.8521 49.7462 75.4437 50.9514 75.6831C52.1566 75.9224 53.4058 75.7988 54.5407 75.328C55.6757 74.8571 56.6454 74.0601 57.3272 73.0378C58.009 72.0156 58.3721 70.814 58.3707 69.5852C58.3717 68.7698 58.212 67.9621 57.9008 67.2084C57.5896 66.4546 57.133 65.7696 56.557 65.1923C55.9811 64.615 55.2971 64.1568 54.544 63.8439C53.791 63.5309 52.9837 63.3694 52.1682 63.3684V63.3828Z" fill="#424956"/>
<path d="M72.8647 136.16C72.8647 137.054 72.8647 137.934 72.8647 138.793C72.1493 141.153 70.2034 143.414 67.0414 145.231C58.8429 149.96 45.5795 149.96 37.3453 145.231C34.1832 143.4 32.2445 141.132 31.522 138.793V136.167C32.2374 138.571 34.1689 140.86 37.3739 142.713C45.5795 147.442 58.8715 147.442 67.07 142.713C70.2106 140.839 72.1994 138.556 72.8647 136.16Z" fill="#283E79"/>
<path d="M72.8003 140.324C72.8003 141.282 72.7502 142.212 72.7144 143.106C71.9132 145.338 70.0102 147.463 66.9913 149.194C58.7928 153.93 45.5294 153.93 37.2952 149.194C34.2834 147.449 32.3804 145.31 31.572 143.063C31.572 142.169 31.522 141.246 31.5005 140.295C32.2159 142.627 34.1689 144.845 37.288 146.648C45.4936 151.384 58.7857 151.384 66.9841 146.648C70.1175 144.852 72.0491 142.641 72.8003 140.324Z" fill="#283E79"/>
<path d="M72.5785 132.933C71.7129 135.03 69.8528 137.026 67.0127 138.657C58.8143 143.385 45.5509 143.385 37.3167 138.657C34.4551 136.997 32.5951 134.994 31.7294 132.876C31.7867 133.921 31.8439 134.901 31.9083 135.816C32.8311 137.791 34.6339 139.651 37.3167 141.203C40.8158 143.11 44.6765 144.261 48.6485 144.58C50.789 144.788 52.9437 144.805 55.0871 144.63C59.2548 144.367 63.3148 143.197 66.9841 141.203C69.6454 139.665 71.441 137.827 72.371 135.874L72.5785 132.933Z" fill="#283E79"/>
<path d="M61.5042 39.8248C55.3853 41.7029 48.8439 41.7029 42.725 39.8248C45.2504 34.8957 48.2837 31.8839 51.9107 31.7051H52.3256C55.9384 31.9197 58.9717 34.9172 61.5042 39.8248Z" fill="#283E79"/>
<path d="M54.1642 110.763H50.5944V157.629H54.1642V110.763Z" fill="#283E79"/>
<path opacity="0.4" d="M223.434 274.081L181.941 250.122C178.943 248.391 179.323 245.372 182.778 243.376L209.662 227.859L261.994 258.071L235.109 273.595C231.647 275.591 226.424 275.805 223.434 274.081Z" fill="#D6D8E5"/>
<path d="M226.46 272.3L184.967 248.334C181.977 246.61 182.349 243.591 185.804 241.595L212.696 226.078L265.027 256.289L238.171 271.806C234.68 273.809 229.45 274.024 226.46 272.3Z" fill="#B1B4C4"/>
<path d="M265.02 256.289V254.708L262.602 256.103L265.02 256.289Z" fill="#B1B4C4"/>
<path d="M182.943 245.48V243.87L185.425 244.9L182.943 245.48Z" fill="#B1B4C4"/>
<path d="M226.46 270.711L184.967 246.753C181.977 245.022 182.349 242.01 185.804 240.014L212.696 224.49L265.027 254.708L238.171 270.225C234.68 272.221 229.45 272.443 226.46 270.711Z" fill="#D6D8E5"/>
<path d="M212.825 224.561L206.35 203.071L259.254 233.418L265.02 254.708L212.825 224.561Z" fill="#9EA1AF"/>
<path d="M263.489 255.588L265.02 254.708L262.738 252.884L263.489 255.588Z" fill="#9EA1AF"/>
<path d="M211.158 225.37L204.683 203.879L257.587 234.226L263.482 255.588L211.158 225.37Z" fill="#B1B4C4"/>
<path d="M345.48 291.837L140.67 173.575C137.808 171.915 135.469 167.466 135.469 163.638V5.22829C135.469 1.39377 137.801 -0.366105 140.67 1.29361L345.48 119.527C348.342 121.187 350.681 125.636 350.681 129.464V287.874C350.66 291.701 348.342 293.461 345.48 291.837Z" fill="#C4C7D6"/>
<path d="M346.51 293.44L348.778 292.13L347.798 285.406L346.51 293.44Z" fill="#C4C7D6"/>
<path d="M135.104 2.27375L137.336 0.978882L140.548 2.81745C140.548 2.81745 137.129 3.33969 137.043 3.31822C136.957 3.29676 135.104 2.27375 135.104 2.27375Z" fill="#B1B4C4"/>
<path d="M343.577 292.889L138.795 174.655C135.934 172.996 133.595 168.553 133.595 164.719V6.30853C133.595 2.48117 135.92 0.721294 138.795 2.38101L343.577 120.614C346.439 122.274 348.778 126.724 348.778 130.551V288.976C348.778 292.789 346.453 294.548 343.577 292.889Z" fill="#E4E7F2"/>
<path d="M343.22 293.096L138.431 174.863C135.569 173.203 133.23 168.753 133.23 164.926V6.51605C133.23 2.68869 135.562 0.928814 138.431 2.58853L343.22 120.858C346.081 122.51 348.421 126.96 348.421 130.795V289.162C348.421 292.996 346.088 294.756 343.22 293.096Z" fill="#D6D8E5"/>
<path d="M345.602 283.46L135.87 162.351L135.941 7.1527C135.941 5.56452 137.057 4.92067 138.431 5.72191L343.22 123.948C343.942 124.419 344.543 125.053 344.975 125.798C345.408 126.544 345.659 127.38 345.709 128.241L345.602 283.46Z" fill="white"/>
<path d="M218.655 73.6988L151.465 34.91C151.155 34.6865 150.902 34.3934 150.725 34.0542C150.549 33.7151 150.454 33.3393 150.449 32.957V28.2712C150.449 27.5558 150.9 27.1766 151.465 27.4985L218.655 66.2873C218.964 66.512 219.217 66.8054 219.393 67.1443C219.569 67.4832 219.664 67.8584 219.671 68.2403V72.9262C219.671 73.6773 219.213 74.0279 218.655 73.6988Z" fill="#E9EAF2"/>
<path d="M201.4 74.822L151.773 46.1704C151.461 45.9491 151.207 45.6577 151.029 45.3196C150.851 44.9816 150.755 44.6064 150.75 44.2245V41.8923C150.75 41.1769 151.208 40.7906 151.773 41.1197L201.4 69.7713C201.707 69.9952 201.957 70.2878 202.131 70.6256C202.305 70.9634 202.397 71.3372 202.401 71.7172V74.0494C202.401 74.8005 201.958 75.1511 201.4 74.822Z" fill="#E9EAF2"/>
<path d="M201.4 83.6571L151.773 55.0413C151.461 54.82 151.207 54.5286 151.029 54.1905C150.851 53.8525 150.755 53.4773 150.75 53.0954V50.7489C150.75 50.0335 151.208 49.6472 151.773 49.9763L201.4 78.6493C201.709 78.8717 201.962 79.1636 202.139 79.5015C202.315 79.8395 202.41 80.214 202.416 80.5952V82.9274C202.401 83.6571 201.958 83.9933 201.4 83.6571Z" fill="#E9EAF2"/>
<path d="M192.035 87.1053L151.773 63.855C151.461 63.6337 151.207 63.3423 151.029 63.0042C150.851 62.6661 150.755 62.291 150.75 61.9091V59.5769C150.75 58.8615 151.208 58.4752 151.773 58.8043L192.035 82.0475C192.346 82.2706 192.601 82.5635 192.778 82.9026C192.956 83.2417 193.052 83.6177 193.058 84.0005V86.3327C193.058 87.0839 192.6 87.4272 192.035 87.1053Z" fill="#283E79"/>
<path d="M218.655 166.529L151.465 127.74C151.155 127.516 150.902 127.223 150.725 126.884C150.549 126.545 150.454 126.169 150.449 125.787V121.101C150.449 120.35 150.9 120.006 151.465 120.328L218.655 159.117C218.964 159.342 219.217 159.635 219.393 159.974C219.569 160.313 219.664 160.688 219.671 161.07V165.756C219.671 166.507 219.213 166.85 218.655 166.529Z" fill="#E9EAF2"/>
<path d="M201.4 167.652L151.773 139.036C151.462 138.813 151.207 138.52 151.03 138.181C150.852 137.841 150.756 137.466 150.75 137.083V134.751C150.75 133.999 151.208 133.656 151.773 133.985L201.4 162.601C201.709 162.826 201.961 163.119 202.137 163.458C202.314 163.797 202.409 164.172 202.416 164.554V166.886C202.401 167.63 201.958 167.974 201.4 167.652Z" fill="#E9EAF2"/>
<path d="M201.4 176.494L151.773 147.842C151.462 147.62 151.208 147.329 151.03 146.991C150.853 146.653 150.757 146.278 150.75 145.896V143.564C150.75 142.849 151.208 142.47 151.773 142.799L201.4 171.415C201.709 171.639 201.961 171.933 202.137 172.272C202.314 172.61 202.409 172.986 202.416 173.368V175.7C202.401 176.472 201.958 176.816 201.4 176.494Z" fill="#E9EAF2"/>
<path d="M192.035 179.928L151.773 156.685C151.461 156.462 151.206 156.169 151.029 155.83C150.851 155.491 150.755 155.115 150.75 154.732V152.399C150.75 151.648 151.208 151.305 151.773 151.634L192.035 174.877C192.346 175.1 192.601 175.393 192.778 175.732C192.956 176.071 193.052 176.447 193.058 176.83V179.162C193.058 179.914 192.6 180.236 192.035 179.928Z" fill="#283E79"/>
<path d="M236.633 178.046C236.633 178.046 244.044 184.27 254.747 175.771C262.387 169.505 269.219 173.081 273.025 175.228C276.831 177.374 282.325 178.69 292.791 197.591C292.791 197.591 296.197 203.514 301.82 206.762C307.443 210.01 310.147 208.422 314.568 201.755C318.989 195.087 321.887 187.704 330.013 192.526V259.551L235.903 205.274V177.61L236.633 178.046Z" fill="#F5F6FF"/>
<path d="M216.18 149.631L151.794 112.43C151.483 112.207 151.229 111.914 151.051 111.575C150.873 111.236 150.778 110.86 150.771 110.477V73.3267C150.771 72.6113 151.229 72.2322 151.794 72.5541L216.18 109.755C216.491 109.978 216.745 110.271 216.923 110.61C217.101 110.949 217.196 111.325 217.203 111.708V148.872C217.203 149.609 216.745 149.953 216.18 149.631Z" fill="#E9EAF2"/>
<path d="M235.903 176.487V205.26L330.013 259.587V192.562" stroke="#E9EAF2" stroke-width="0.221773" stroke-miterlimit="10"/>
<path d="M272.889 175.564V226.543" stroke="#E9EAF2" stroke-width="0.221773" stroke-miterlimit="10"/>
<path d="M301.684 207.807V243.162" stroke="#E9EAF2" stroke-width="0.221773" stroke-miterlimit="10"/>
<path d="M235.903 177.61C252.601 187.962 254.961 164.561 273.154 175.063C291.346 185.565 288.835 199.251 302.263 207.006C315.691 214.76 316.006 184.471 330.013 192.562" stroke="#E9EAF2" stroke-width="1.09455" stroke-miterlimit="10"/>
<path d="M274.455 178.292C275.321 177.793 275.319 176.17 274.452 174.668C273.585 173.166 272.18 172.353 271.314 172.853C270.449 173.353 270.45 174.976 271.317 176.478C272.184 177.98 273.589 178.792 274.455 178.292Z" fill="#283E79"/>
<path d="M332.897 196.067C333.767 195.567 333.769 193.938 332.901 192.429C332.034 190.92 330.626 190.102 329.756 190.602C328.887 191.102 328.885 192.73 329.752 194.239C330.619 195.748 332.027 196.567 332.897 196.067Z" fill="#283E79"/>
<path d="M304.448 210.742C305.317 210.243 305.319 208.614 304.452 207.105C303.585 205.596 302.177 204.778 301.307 205.278C300.438 205.778 300.436 207.406 301.303 208.915C302.17 210.424 303.578 211.242 304.448 210.742Z" fill="#283E79"/>
<path d="M237.474 180.336C238.339 179.836 238.338 178.214 237.471 176.711C236.604 175.209 235.199 174.397 234.333 174.897C233.467 175.396 233.469 177.019 234.336 178.521C235.203 180.023 236.608 180.836 237.474 180.336Z" fill="#283E79"/>
<path d="M238.557 128.176L234.701 125.951C234.39 125.728 234.136 125.435 233.958 125.096C233.781 124.757 233.685 124.381 233.678 123.998V105.398C233.678 104.647 234.136 104.303 234.701 104.625L238.557 106.857C238.868 107.073 239.124 107.357 239.305 107.689C239.487 108.021 239.588 108.39 239.602 108.767V127.403C239.602 128.155 239.123 128.498 238.557 128.176Z" fill="#E9EAF2"/>
<path d="M247.471 133.306L243.615 131.074C243.304 130.852 243.049 130.561 242.871 130.223C242.694 129.885 242.598 129.51 242.592 129.128V91.2117C242.592 90.4963 243.05 90.11 243.615 90.439L247.471 92.6711C247.782 92.8943 248.037 93.1871 248.214 93.5262C248.392 93.8653 248.488 94.2413 248.494 94.6241V132.54C248.466 133.284 248.008 133.627 247.471 133.306Z" fill="#283E79"/>
<path d="M265.206 143.557L261.35 141.332C261.038 141.11 260.782 140.818 260.604 140.478C260.427 140.139 260.331 139.762 260.327 139.379V105.155C260.327 104.404 260.785 104.06 261.35 104.382L265.206 106.607C265.517 106.83 265.771 107.123 265.949 107.462C266.127 107.801 266.222 108.177 266.229 108.56V142.792C266.229 143.543 265.771 143.886 265.206 143.557Z" fill="#E9EAF2"/>
<path d="M274.091 148.686L270.235 146.462C269.924 146.238 269.669 145.946 269.492 145.606C269.314 145.267 269.218 144.891 269.212 144.509V116.15C269.212 115.435 269.67 115.056 270.235 115.378L274.091 117.61C274.402 117.831 274.657 118.122 274.835 118.461C275.013 118.799 275.108 119.174 275.114 119.556V147.914C275.114 148.672 274.656 149.016 274.091 148.686Z" fill="#283E79"/>
<path d="M291.783 158.902L287.92 156.677C287.609 156.454 287.356 156.161 287.18 155.822C287.003 155.483 286.909 155.107 286.904 154.724V140.71C286.904 139.952 287.354 139.608 287.92 139.937L291.783 142.162C292.092 142.387 292.344 142.68 292.52 143.019C292.697 143.358 292.792 143.733 292.799 144.115V158.13C292.799 158.881 292.341 159.224 291.783 158.902Z" fill="#E9EAF2"/>
<path d="M300.661 164.032L296.833 161.8C296.522 161.578 296.267 161.287 296.09 160.949C295.912 160.611 295.816 160.236 295.81 159.854V112.187C295.81 111.429 296.268 111.085 296.833 111.414L300.689 113.639C301.001 113.862 301.256 114.155 301.433 114.494C301.611 114.833 301.707 115.209 301.712 115.592V163.259C301.684 164.01 301.226 164.354 300.661 164.032Z" fill="#283E79"/>
<path d="M322.33 176.544L318.474 174.312C318.163 174.091 317.908 173.799 317.73 173.461C317.553 173.123 317.457 172.748 317.451 172.366V158.344C317.451 157.593 317.909 157.25 318.474 157.572L322.33 159.804C322.642 160.026 322.898 160.318 323.076 160.658C323.253 160.997 323.349 161.374 323.353 161.757V175.771C323.353 176.522 322.895 176.866 322.33 176.544Z" fill="#E9EAF2"/>
<path d="M331.215 181.666L327.359 179.434C327.047 179.212 326.792 178.92 326.614 178.58C326.436 178.241 326.341 177.864 326.336 177.481V158.881C326.336 158.13 326.794 157.786 327.359 158.108L331.215 160.333C331.526 160.556 331.781 160.849 331.959 161.188C332.136 161.527 332.232 161.903 332.238 162.286V180.922C332.238 181.666 331.78 181.995 331.215 181.666Z" fill="#283E79"/>
<path opacity="0.4" d="M75.7119 356.938L43.7766 338.524C40.1567 336.428 40.6074 332.801 44.7925 330.368L61.0034 321.004C65.1813 318.593 71.4839 318.307 75.1253 320.453L107.061 338.896C110.68 340.985 110.23 344.619 106.045 347.044L89.8338 356.409C85.6559 358.784 79.3532 359.084 75.7119 356.938Z" fill="#D6D8E5"/>
<path d="M123.708 333.952V289.376L55.5163 281.7V326.555C55.4734 327.929 56.2317 329.238 57.9487 330.211L89.8839 348.654C93.5038 350.743 99.8279 350.478 104.006 348.067L120.217 338.703C122.57 337.343 123.744 335.591 123.672 333.952H123.708Z" fill="#D6D8E5"/>
<path d="M123.665 294.241V289.376H118.421L89.2973 272.557C85.6774 270.461 79.3533 270.726 75.1754 273.137L58.9645 282.537C58.6762 282.701 58.3968 282.88 58.1275 283.073L55.5163 281.736C55.5163 281.736 55.5163 286.879 55.5163 287.051C55.4734 288.41 56.2317 289.719 57.9487 290.692L89.8839 309.128C93.5038 311.217 99.8279 310.952 104.006 308.542L120.217 299.184C122.642 297.753 123.794 295.965 123.658 294.277L123.665 294.241Z" fill="#EDF0F9"/>
<path d="M89.8839 303.791L57.9486 285.356C54.3287 283.267 54.7794 279.632 58.9645 277.2L75.1754 267.843C79.3533 265.425 85.6774 265.167 89.2973 267.256L121.233 285.692C124.852 287.781 124.402 291.415 120.217 293.847L104.006 303.205C99.8279 305.623 93.5038 305.88 89.8839 303.791Z" fill="#E2E5F2"/>
<path d="M82.687 278.624V276.85H81.5996L81.2634 276.635C80.1937 276.092 79.0111 275.809 77.8116 275.809C76.6121 275.809 75.4294 276.092 74.3598 276.635C74.1553 276.754 73.9615 276.891 73.7803 277.043L72.929 276.85V278.624C72.969 279.054 73.1226 279.465 73.374 279.816C73.6255 280.166 73.9657 280.444 74.3598 280.62C75.4294 281.163 76.6121 281.446 77.8116 281.446C79.0111 281.446 80.1937 281.163 81.2634 280.62C81.6575 280.445 81.9974 280.167 82.2478 279.816C82.4982 279.465 82.6499 279.053 82.687 278.624Z" fill="#6E48E5"/>
<path d="M77.808 279.668C80.5026 279.668 82.687 278.406 82.687 276.85C82.687 275.293 80.5026 274.031 77.808 274.031C75.1134 274.031 72.929 275.293 72.929 276.85C72.929 278.406 75.1134 279.668 77.808 279.668Z" fill="#283E79"/>
<path d="M94.7915 286.114C94.5254 286.71 94.0634 287.197 93.4823 287.495C92.413 288.034 91.2319 288.315 90.0341 288.315C88.8363 288.315 87.6553 288.034 86.5859 287.495C86.0048 287.197 85.5429 286.71 85.2767 286.114C84.919 285.198 85.3626 284.218 86.5859 283.503C87.6553 282.963 88.8363 282.682 90.0341 282.682C91.2319 282.682 92.413 282.963 93.4823 283.503C94.7128 284.182 95.1492 285.162 94.7915 286.114Z" fill="#5E42D3"/>
<path d="M94.7915 286.114C94.5254 286.71 94.0634 287.197 93.4823 287.495C92.4129 288.034 91.2319 288.315 90.0341 288.315C88.8363 288.315 87.6553 288.034 86.5859 287.495C86.236 287.469 85.9085 287.313 85.6695 287.056C85.4305 286.799 85.2976 286.461 85.2976 286.11C85.2976 285.759 85.4305 285.422 85.6695 285.165C85.9085 284.908 86.236 284.751 86.5859 284.726C87.6553 284.186 88.8363 283.905 90.0341 283.905C91.2319 283.905 92.4129 284.186 93.4823 284.726C94.0646 285.025 94.5267 285.515 94.7915 286.114Z" fill="#283E79"/>
<path d="M106.259 292.459V290.685H105.172L104.836 290.471C103.766 289.928 102.583 289.645 101.384 289.645C100.184 289.645 99.0017 289.928 97.9321 290.471C97.7294 290.59 97.5357 290.724 97.3526 290.871L96.5013 290.685V292.459C96.5413 292.889 96.6948 293.301 96.9463 293.651C97.1977 294.002 97.538 294.28 97.9321 294.455C99.0017 294.998 100.184 295.281 101.384 295.281C102.583 295.281 103.766 294.998 104.836 294.455C105.23 294.28 105.57 294.003 105.82 293.652C106.071 293.301 106.222 292.889 106.259 292.459Z" fill="#6E48E5"/>
<path d="M101.38 293.504C104.075 293.504 106.259 292.242 106.259 290.685C106.259 289.129 104.075 287.867 101.38 287.867C98.6857 287.867 96.5013 289.129 96.5013 290.685C96.5013 292.242 98.6857 293.504 101.38 293.504Z" fill="#283E79"/>
<path d="M47.3751 271.456C47.1819 273.122 45.2289 280.319 45.6152 282.787C46.0015 285.256 52.8407 289.376 52.8407 289.376L53.785 285.155L50.022 281.464L51.0379 274.475L47.3751 271.456Z" fill="#FFCEA9"/>
<path d="M52.6333 264.366C51.9728 264.058 51.2222 264.004 50.5243 264.214C49.8264 264.423 49.2301 264.882 48.8488 265.503C47.8473 267.163 46.8099 272.843 46.7026 273.816C46.7026 273.816 48.1334 275.755 50.2152 275.433L52.6333 264.366Z" fill="#EDEDED"/>
<path d="M60.3953 344.605C61.8753 345.012 63.4562 344.819 64.795 344.068C65.8538 344.104 71.6127 341.636 72.3925 343.703C73.1079 345.52 70.5825 347.194 69.2519 347.516C66.3474 348.232 64.2012 349.663 63.0279 349.92C62.1623 350.099 61.032 350.221 60.3452 349.534C59.5082 348.718 59.5797 345.685 60.3953 344.605Z" fill="#38226D"/>
<path d="M63.0279 349.412C64.2012 349.169 66.3473 347.717 69.2518 347.016C70.3679 346.744 72.2923 345.528 72.4854 344.068C72.743 345.735 70.4966 347.216 69.2518 347.516C66.3473 348.232 64.2012 349.663 63.0279 349.92C62.1623 350.099 61.032 350.221 60.3452 349.534C60.157 349.332 60.024 349.086 59.9589 348.818C60.388 349.151 60.8894 349.378 61.4226 349.481C61.9557 349.584 62.5056 349.561 63.0279 349.412Z" fill="#9C73FF"/>
<path d="M51.0665 340.412C52.5456 340.822 54.1265 340.632 55.4662 339.883C56.525 339.883 62.2768 337.451 63.0637 339.518C63.7791 341.328 61.2537 343.002 59.9231 343.331C57.0186 344.047 54.8653 345.477 53.6992 345.728C52.8264 345.907 51.7032 346.028 51.0093 345.349C50.1794 344.526 50.251 341.493 51.0665 340.412Z" fill="#38226D"/>
<path d="M53.6992 345.227C54.8653 344.977 57.0186 343.532 59.9231 342.823C61.0391 342.559 62.9635 341.335 63.1567 339.883C63.4142 341.55 61.1679 343.024 59.9231 343.331C57.0186 344.047 54.8653 345.477 53.6992 345.728C52.8264 345.907 51.7032 346.028 51.0093 345.349C50.8279 345.144 50.6979 344.898 50.6301 344.633C51.0606 344.963 51.562 345.189 52.0946 345.292C52.6273 345.395 53.1766 345.373 53.6992 345.227Z" fill="#9C73FF"/>
<path d="M50.9521 324.781C51.1999 322.644 51.6429 320.535 52.2756 318.478C52.2756 318.478 51.8821 313.041 51.6818 307.883C51.46 302.032 49.4283 296.881 51.0308 292.216L69.0802 296.23C69.0802 296.23 67.9928 319.559 67.7496 322.377C67.6186 324.577 67.3486 326.765 66.9412 328.93C66.1185 333.459 64.795 344.233 64.795 344.233C62.892 345.342 60.381 344.726 60.381 344.726C60.381 344.726 60.5241 331.134 60.6457 327.843C60.7959 323.858 60.9175 324.159 60.9175 324.159L60.3166 314.236L59.9303 309.3C59.9303 309.3 59.4295 312.92 59.1004 316.161C58.8214 318.979 58.1418 321.533 57.3763 326.784C56.7182 331.341 55.6451 340.498 55.6451 340.498C53.735 341.607 51.1452 340.684 51.1452 340.684C51.1452 340.684 50.437 328.73 50.9521 324.781Z" fill="#283E79"/>
<path d="M53.599 264.459C54.9797 264.53 56.0027 264.881 56.1744 264.459C56.3177 263.75 56.4204 263.033 56.482 262.313C56.3247 261.912 56.1887 261.483 56.1887 261.483C54.4646 260.424 53.9209 258.557 53.692 256.382C53.3057 252.669 55.3088 249.421 59.0217 249.035C62.5128 248.67 65.0883 251.124 65.7679 254.493C66.1399 256.153 66.8767 259.301 65.8823 262.034C65.3243 263.565 64.6089 264.781 63.8935 265.017C63.2014 264.994 62.5111 264.932 61.8261 264.831C61.8261 264.831 61.64 265.861 61.5113 266.519C61.3825 267.177 61.4326 267.535 62.7489 268.343C64.0652 269.152 60.753 270.847 58.6068 270.683C56.4606 270.518 54.0139 269.216 53.3415 267.821C52.576 266.255 52.6404 264.416 53.599 264.459Z" fill="#FFCEA9"/>
<path d="M55.5735 264.652C55.1944 265.604 56.1601 266.798 58.7427 267.571C61.3253 268.343 61.5614 267.342 61.5614 267.342C63.2769 268.11 64.9487 268.972 66.5691 269.925C68.1216 271.012 68.8083 274.145 69.0158 279.439C69.259 285.563 69.2805 294.649 69.073 296.215C69.073 296.215 66.2115 299.077 62.4699 298.798C58.7284 298.519 52.5331 295.221 51.0236 292.681C51.0665 287.309 51.6961 286.436 50.8233 283.345C48.8345 276.263 47.79 273.33 48.7558 268.658C49.5499 264.774 50.6659 264.294 52.204 264.33C53.3322 264.376 54.4571 264.483 55.5735 264.652Z" fill="#F4F4F4"/>
<path d="M74.8534 284.519C71.8058 285.284 71.0976 283.367 70.6969 281.779C69.724 277.93 69.2089 274.46 68.4864 272.278C67.6351 269.703 66.7408 269.295 65.496 268.794C64.0652 268.2 62.7632 269.445 63.2497 272.722C63.85 276.524 64.7836 280.265 66.0397 283.903C66.4189 285.098 67.263 287.223 68.5365 288.253C70.1032 289.519 72.4711 289.469 76.0481 288.582C77.5719 288.196 79.2459 287.287 82.129 285.942C82.9016 285.585 83.5025 285.341 84.9905 284.647C86.4847 283.98 87.7936 282.959 88.8036 281.671C89.5834 280.541 89.6835 280.012 89.519 279.754C89.3545 279.497 88.9681 279.504 88.5532 279.983C87.951 280.784 87.2095 281.47 86.3641 282.008C86.3641 282.008 87.3227 281.013 87.845 280.369C88.3116 279.797 88.699 279.164 88.9968 278.488C89.2686 277.83 88.7035 276.935 88.2814 277.408C87.8593 277.88 87.6447 278.352 86.8506 279.296C86.4295 279.801 85.9491 280.252 85.4198 280.641C85.9082 279.982 86.3413 279.283 86.7147 278.552C87.0515 277.981 87.2179 277.326 87.194 276.664C87.194 276.32 86.686 275.912 86.2282 276.563C85.7862 277.458 85.2386 278.296 84.5971 279.06C83.8817 279.776 83.3094 280.191 83.2951 279.99C83.2808 279.79 83.71 279.396 83.9604 278.559C84.2108 277.722 83.9604 276.828 83.4954 276.735C83.0304 276.642 83.1234 276.664 82.78 277.451C82.2674 278.258 81.8063 279.096 81.3993 279.962C81.1599 280.767 80.7305 281.503 80.1473 282.108C79.3962 282.909 77.7436 283.789 74.8534 284.519Z" fill="#FFCEA9"/>
<path d="M64.3657 268.265C66.3975 267.964 67.8354 268.88 68.7296 271.956C69.6239 275.032 70.2534 277.529 70.2534 277.529C69.4509 278.689 68.2351 279.498 66.8553 279.79C64.423 280.384 63.5502 279.218 63.5502 279.218C63.5502 279.218 62.8777 275.998 62.4556 273.802C62.0335 271.606 61.8547 268.637 64.3657 268.265Z" fill="#EDEDED"/>
<path d="M65.6391 254.014C65.6391 254.014 68.8441 249.135 61.8904 248.141C56.8827 247.425 53.6562 250.645 53.3057 254.143C52.948 257.484 55.0083 260.953 56.4892 262.327C57.9489 262.699 59.4947 262.512 60.8245 261.805C60.9097 260.897 60.9431 259.984 60.9247 259.072C60.9247 259.072 58.4565 253.921 65.6391 254.014Z" fill="#3A2C6D"/>
<path opacity="0.4" d="M274.356 347.495C284.087 347.495 291.976 342.94 291.976 337.322C291.976 331.704 284.087 327.149 274.356 327.149C264.624 327.149 256.736 331.704 256.736 337.322C256.736 342.94 264.624 347.495 274.356 347.495Z" fill="#D6D8E5"/>
<path d="M274.206 239.163C274.921 237.996 280.501 237.224 282.332 241.938C283.048 243.727 282.919 248.298 283.498 251.167C284.078 254.036 285.444 255.667 285.938 257.992C286.432 260.317 285.63 264.223 280.015 264.917C274.399 265.611 270.085 263.636 268.761 261.848C267.438 260.059 267.409 256.253 268.761 254.207C270.113 252.161 271.187 250.509 271.151 247.847L274.206 239.163Z" fill="#3A2C6D"/>
<path d="M277.883 238.354C277.883 238.354 273.69 237.145 271.151 239.406C270.314 240.179 269.705 241.166 269.39 242.261C269.075 243.356 269.065 244.516 269.362 245.615C269.699 246.939 270.378 248.742 271.43 248.842C272.481 248.942 277.883 238.354 277.883 238.354Z" fill="#3A2C6D"/>
<path d="M279.485 249.779C279.485 249.779 279.206 254.443 279.292 254.787C279.378 255.13 281.123 255.502 281.617 255.874C282.111 256.246 279.077 261.018 277.539 261.719C276.001 262.42 271.229 260.624 270.893 258.256C270.593 256.067 272.26 254.372 272.904 253.778C273.341 253.737 273.781 253.725 274.22 253.742L274.363 251.482C276.452 250.816 279.485 249.779 279.485 249.779Z" fill="#FFCEA9"/>
<path d="M268.218 258.6C268.218 258.464 267.502 258.843 267.502 258.85C267.502 258.857 267.166 270.833 266.579 271.921C265.084 274.46 261.128 278.767 261.028 279.246C260.735 280.677 261.579 279.396 262.938 279.246C263.703 279.153 268.203 274.603 269.212 273.566L269.276 273.602V273.487L269.405 273.351C269.431 273.028 269.431 272.702 269.405 272.378C271.301 259.365 268.997 258.5 268.218 258.6Z" fill="#FFCEA9"/>
<path d="M280.122 255.245C281.438 255.445 282.933 256.146 283.141 256.861C283.682 259.45 283.554 262.134 282.769 264.659C281.631 267.664 280.866 269.574 280.208 270.869C280.208 270.869 274.535 273.301 269.956 270.461C269.956 270.461 269.641 267.242 269.62 265.518C265.399 261.833 269.012 257.291 272.589 253.764C273.017 253.725 273.448 253.725 273.876 253.764C273.876 253.764 270.686 257.541 272.904 259.687C277.661 258.214 278.605 256.067 280.122 255.245Z" fill="#F4F4F4"/>
<path d="M270.764 243.991C271.229 240.994 273.397 238.726 276.488 238.905C277.733 238.972 278.926 239.429 279.897 240.212C280.868 240.994 281.569 242.062 281.899 243.265C282.23 244.468 282.174 245.744 281.74 246.913C281.305 248.082 280.514 249.084 279.478 249.779C279.371 250.233 279.21 250.673 278.999 251.088C277.904 252.362 274.992 253.17 274.034 253.184C273.204 253.184 272.489 252.419 271.709 251.131C270.092 248.448 270.507 245.472 270.764 243.991Z" fill="#FFCEA9"/>
<path d="M277.453 238.962C279.6 239.384 281.402 240 281.996 242.124C282.397 243.598 282.926 246.417 282.425 247.568L282.111 248.42L279.485 249.779C279.485 249.779 278.255 248.756 278.641 245.759C278.626 245.354 278.497 244.962 278.269 244.628C278.105 244.344 277.982 244.038 277.904 243.72C277.592 242.91 276.983 242.25 276.202 241.874C274.248 240.779 271.387 241.724 270.986 242.124C271.539 240.937 272.483 239.975 273.66 239.399C274.837 238.824 276.176 238.669 277.453 238.962Z" fill="#3A2C6D"/>
<path d="M281.402 333.824C280.301 334.718 278.591 334.103 278.541 334.181C277.259 335.28 275.916 336.307 274.52 337.258C273.805 337.794 272.768 338.517 272.961 339.547C273.304 341.4 276.266 340.835 277.382 340.262C278.498 339.69 279.414 338.76 280.472 338.116C281.224 337.651 281.968 337.401 282.089 336.456C282.125 335.863 281.596 333.802 281.402 333.824Z" fill="#38226D"/>
<path d="M282.046 336.056C281.896 336.971 281.166 337.222 280.415 337.687C279.342 338.352 278.398 339.318 277.282 339.883C276.166 340.448 273.669 340.92 272.946 339.604C273.34 341.385 276.252 340.827 277.353 340.262C278.455 339.697 279.385 338.76 280.444 338.116C281.195 337.651 281.939 337.401 282.061 336.456C282.066 336.323 282.061 336.189 282.046 336.056Z" fill="#9C73FF"/>
<path d="M273.698 332.286C272.689 333.108 271.172 332.643 271.101 332.722C269.925 333.721 268.698 334.657 267.424 335.526C266.794 336.02 265.814 336.678 265.993 337.622C266.308 339.318 269.019 338.796 270.049 338.281C271.079 337.766 271.902 336.9 272.875 336.299C273.59 335.87 274.241 335.648 274.349 334.775C274.42 334.246 273.876 332.264 273.698 332.286Z" fill="#38226D"/>
<path d="M274.341 334.425C274.206 335.262 273.533 335.491 272.846 335.913C271.866 336.528 271.001 337.408 269.985 337.93C268.969 338.452 266.68 338.882 266.014 337.673C266.372 339.304 269.04 338.796 270.056 338.281C271.072 337.766 271.909 336.9 272.882 336.299C273.597 335.87 274.248 335.648 274.356 334.775C274.365 334.658 274.36 334.541 274.341 334.425Z" fill="#9C73FF"/>
<path d="M267.774 281.206C268.261 277.415 269.656 271.906 269.656 271.906C270.974 272.522 272.401 272.875 273.855 272.944C275.987 272.936 278.114 272.73 280.208 272.328C280.89 273.522 281.638 274.678 282.447 275.791C283.541 277.307 285.666 280.627 285.151 286.429C284.815 290.22 282.69 306.324 282.69 306.324C283.518 309.031 283.958 311.842 283.999 314.673C283.799 318.039 283.354 321.386 282.669 324.688L281.402 333.824C281.402 333.824 279.714 335.047 278.541 334.181L278.691 325.239C278.548 323.05 278.326 319.823 278.19 317.763C277.961 314.401 277.36 309.071 277.189 307.748C277.017 306.424 276.588 304.085 276.38 301.481C276.173 298.877 275.2 285.62 275.2 285.62L275.064 288.103C275.064 288.103 274.928 292.13 274.349 297.102C273.769 302.074 273.569 304.256 273.569 304.256C274.118 305.259 274.502 306.344 274.706 307.469C274.806 308.542 276.03 317.041 275.3 321.362L273.791 332.357C273.416 332.617 272.985 332.784 272.534 332.843C272.082 332.903 271.623 332.854 271.194 332.701L270.307 321.619C269.713 317.405 268.454 308.47 268.261 307.311C267.831 304.97 267.578 302.6 267.502 300.222C267.188 295.414 267.288 284.991 267.774 281.206Z" fill="#FFCEA9"/>
<path d="M280.208 270.869L283.47 277.415C283.47 277.415 288.478 284.697 283.291 303.419L284.257 309.2C284.257 309.2 274.499 315.459 267.967 309.2C267.967 309.2 265.707 291.894 266.908 283.918C267.581 279.334 268.597 274.807 269.949 270.375C269.949 270.375 271.551 272.142 279.778 270.976" fill="#283E79"/>
<path d="M272.589 253.764C272.589 253.764 269.999 252.97 267.245 258.714L268.275 259.33C268.275 259.33 270.986 255.238 272.589 253.764Z" fill="#EDEDED"/>
<path d="M252.365 284.891L263.51 278.416L271.508 283.031L260.363 289.512L252.365 284.891Z" fill="#F4F4F4"/>
<path d="M262.072 278.889C261.373 278.959 260.698 279.178 260.091 279.532C259.868 279.727 259.629 279.902 259.375 280.055C259.268 280.105 259.161 280.176 259.046 280.226C258.876 280.289 258.722 280.389 258.596 280.52C258.471 280.703 258.404 280.92 258.402 281.142C258.345 281.407 258.331 281.68 258.36 281.95C258.46 282.351 258.875 282.315 259.075 282.036C259.184 281.897 259.246 281.727 259.254 281.55C259.26 281.381 259.306 281.215 259.388 281.068C259.47 280.92 259.586 280.793 259.726 280.698L262.387 279.046C262.356 278.991 262.31 278.947 262.254 278.919C262.198 278.891 262.135 278.88 262.072 278.889Z" fill="#FFCEA9"/>
<path d="M283.277 258.929C282.912 257.412 281.724 257.899 280.701 257.012C278.333 260.367 279.907 269.438 280.229 270.404L271.129 276.206L270.514 276.585C269.478 277.265 268.334 277.764 267.13 278.059C266.222 278.166 265.75 279.447 264.777 279.561C264.702 279.564 264.631 279.588 264.57 279.631C264.51 279.674 264.463 279.734 264.436 279.804C264.41 279.873 264.404 279.949 264.42 280.021C264.436 280.094 264.473 280.16 264.526 280.212C264.913 280.584 265.957 280.276 266.672 279.447C266.669 279.465 266.669 279.485 266.672 279.504C266.678 279.636 266.718 279.765 266.788 279.878C266.858 279.991 266.957 280.084 267.073 280.148C267.125 280.179 267.184 280.199 267.245 280.205C267.244 280.266 267.262 280.325 267.295 280.377C267.346 280.482 267.423 280.572 267.518 280.641C267.612 280.71 267.723 280.754 267.839 280.77C267.89 280.917 267.987 281.043 268.116 281.129C268.245 281.216 268.399 281.258 268.554 281.249C268.763 281.239 268.96 281.149 269.105 280.999C269.881 280.703 270.566 280.21 271.094 279.568C271.56 279.084 272.052 278.625 272.567 278.195C275.035 277.129 282.44 273.967 282.769 273.516C283.284 272.836 283.806 261.075 283.277 258.929Z" fill="#FFCEA9"/>
<path d="M284.107 263C284.107 263 281.195 264.302 278.777 263.085L279.127 258.528C279.127 258.528 279.163 256.082 281.345 255.838C283.527 255.595 284.672 258.392 284.107 263Z" fill="#EDEDED"/>
</g>
<defs>
<clipPath id="clip0_28_386">
<rect width="350" height="357.698" fill="white" transform="translate(0.65979 0.671265)"/>
</clipPath>
</defs>
</svg>
