<svg width="101" height="100" viewBox="0 0 101 100" fill="none" xmlns="http://www.w3.org/2000/svg">
<path d="M89.5319 74.2516L52.0319 5.50156C51.4834 4.49687 49.8366 4.49687 49.2881 5.50156L11.7881 74.2516C11.1663 75.3938 12.1913 76.7844 13.4663 76.5312L43.3631 70.5516L49.1772 87.9938C49.6334 89.3625 51.685 89.3625 52.1413 87.9938L57.9553 70.5516L87.8522 76.5312C89.1272 76.7859 90.1538 75.3922 89.5319 74.2516ZM57.2163 67.2188C56.4428 67.0641 55.6756 67.5094 55.4272 68.2562L52.2225 77.8719V65.625C52.2225 63.6094 49.0975 63.6094 49.0975 65.625V77.8719L45.8928 68.2562C45.6459 67.5172 44.8663 67.0656 44.1038 67.2188L16.1334 72.8125L50.66 9.5125L85.1866 72.8125L57.2163 67.2188Z" fill="#283E79"/>
<path d="M49.1132 18.5282L42.8632 62.2782C42.5772 64.2735 45.671 64.7126 45.9554 62.7204L50.6601 29.7985L55.3632 62.7204C55.6491 64.7142 58.7429 64.2813 58.4554 62.2782L52.2054 18.5282C51.9585 16.7907 49.3616 16.7907 49.1132 18.5282Z" fill="#283E79"/>
</svg>
