<svg width="101" height="100" viewBox="0 0 101 100" fill="none" xmlns="http://www.w3.org/2000/svg">
<path d="M89.8619 74.2516L52.3619 5.50156C51.8135 4.49687 50.1666 4.49687 49.6182 5.50156L12.1182 74.2516C11.4963 75.3938 12.5213 76.7844 13.7963 76.5312L43.6932 70.5516L49.5072 87.9938C49.9635 89.3625 52.0151 89.3625 52.4713 87.9938L58.2854 70.5516L88.1822 76.5312C89.4572 76.7859 90.4838 75.3922 89.8619 74.2516ZM57.5463 67.2188C56.7729 67.0641 56.0057 67.5094 55.7572 68.2562L52.5526 77.8719V65.625C52.5526 63.6094 49.4276 63.6094 49.4276 65.625V77.8719L46.2229 68.2562C45.976 67.5172 45.1963 67.0656 44.4338 67.2188L16.4635 72.8125L50.9901 9.5125L85.5166 72.8125L57.5463 67.2188Z" fill="#283E79"/>
<path d="M49.4432 18.5282L43.1932 62.2782C42.9072 64.2735 46.001 64.7126 46.2854 62.7204L50.99 29.7985L55.6932 62.7204C55.9791 64.7142 59.0729 64.2813 58.7854 62.2782L52.5354 18.5282C52.2885 16.7907 49.6916 16.7907 49.4432 18.5282Z" fill="#283E79"/>
</svg>
