<svg width="101" height="100" viewBox="0 0 101 100" fill="none" xmlns="http://www.w3.org/2000/svg">
<path d="M89.1918 74.2516L51.6918 5.50156C51.1434 4.49687 49.4965 4.49687 48.9481 5.50156L11.4481 74.2516C10.8262 75.3938 11.8512 76.7844 13.1262 76.5312L43.0231 70.5516L48.8371 87.9938C49.2934 89.3625 51.345 89.3625 51.8012 87.9938L57.6153 70.5516L87.5121 76.5312C88.7871 76.7859 89.8137 75.3922 89.1918 74.2516ZM56.8762 67.2188C56.1028 67.0641 55.3356 67.5094 55.0871 68.2562L51.8824 77.8719V65.625C51.8824 63.6094 48.7574 63.6094 48.7574 65.625V77.8719L45.5528 68.2562C45.3059 67.5172 44.5262 67.0656 43.7637 67.2188L15.7934 72.8125L50.3199 9.5125L84.8465 72.8125L56.8762 67.2188Z" fill="#283E79"/>
<path d="M48.7731 18.5282L42.5231 62.2782C42.2371 64.2735 45.3309 64.7126 45.6153 62.7204L50.3199 29.7985L55.0231 62.7204C55.309 64.7142 58.4028 64.2813 58.1153 62.2782L51.8653 18.5282C51.6184 16.7907 49.0215 16.7907 48.7731 18.5282Z" fill="#283E79"/>
</svg>
